<?xml version="1.0" encoding="utf-8"?>
<!-- Generator: Adobe Illustrator 21.0.0, SVG Export Plug-In . SVG Version: 6.00 Build 0)  -->
<svg version="1.1" id="Capa_1" xmlns="http://www.w3.org/2000/svg" xmlns:xlink="http://www.w3.org/1999/xlink" x="0px" y="0px"
	 viewBox="0 0 31.8 29.9" style="enable-background:new 0 0 31.8 29.9;" xml:space="preserve">
<style type="text/css">
	.st0{fill:#97DB06;}
</style>
<image style="display:none;overflow:visible;" width="30" height="43" xlink:href="../../../money 2.png"  transform="matrix(1 0 0 1 -1.0172 -6.7773)">
</image>
<image style="display:none;overflow:visible;" width="40" height="36" xlink:href="../../../calendar 1.png"  transform="matrix(0.8621 0 0 0.8621 -1.3527 0)">
</image>
<polygon class="st0" points="9.3,4.6 9.3,4.2 9.3,2.7 9.3,2.2 9.3,0 7.8,0 7.8,2.2 7.8,2.7 7.8,4.2 7.8,4.6 7.8,5.8 9.3,5.8 "/>
<rect x="10.8" y="2.7" class="st0" width="2.7" height="1.5"/>
<polygon class="st0" points="16.4,4.6 16.4,4.2 16.4,2.7 16.4,2.2 16.4,0 14.9,0 14.9,4.7 14.9,5.8 16.4,5.8 "/>
<polygon class="st0" points="23.5,4.7 23.5,4.2 23.5,2.7 23.5,2.3 23.5,0 22,0 22,2.3 22,2.7 22,4.2 22,4.7 22,5.8 23.5,5.8 "/>
<path class="st0" d="M30.1,2.7h-4.6v1.5h4.6c0.2,0,0.3,0.1,0.3,0.3v23.6c0,0.2-0.1,0.3-0.3,0.3H1.7c-0.2,0-0.3-0.1-0.3-0.3V4.5
	c0-0.2,0.1-0.3,0.3-0.3H6V2.7H1.7C0.8,2.7,0,3.5,0,4.5v23.6c0,1,0.8,1.8,1.7,1.8h28.4c0.9,0,1.7-0.8,1.7-1.8V4.5
	C31.8,3.5,31.1,2.7,30.1,2.7z"/>
<rect x="17.7" y="2.7" class="st0" width="2.9" height="1.5"/>
<g>
	<path class="st0" d="M11.5,11.1h-0.8c-0.7,0-1.3-0.6-1.3-1.3V9c0-0.7,0.6-1.3,1.3-1.3h0.8c0.7,0,1.3,0.6,1.3,1.3v0.8
		C12.8,10.6,12.2,11.1,11.5,11.1z"/>
	<path class="st0" d="M16.3,11.1h-0.8c-0.7,0-1.3-0.6-1.3-1.3V9c0-0.7,0.6-1.3,1.3-1.3h0.8c0.7,0,1.3,0.6,1.3,1.3v0.8
		C17.6,10.6,17,11.1,16.3,11.1z"/>
	<path class="st0" d="M21.1,11.1h-0.8c-0.7,0-1.3-0.6-1.3-1.3V9c0-0.7,0.6-1.3,1.3-1.3h0.8c0.7,0,1.3,0.6,1.3,1.3v0.8
		C22.4,10.6,21.8,11.1,21.1,11.1z"/>
	<path class="st0" d="M25.9,11.1h-0.8c-0.7,0-1.3-0.6-1.3-1.3V9c0-0.7,0.6-1.3,1.3-1.3h0.8c0.7,0,1.3,0.6,1.3,1.3v0.8
		C27.2,10.6,26.6,11.1,25.9,11.1z"/>
</g>
<g>
	<path class="st0" d="M11.5,15.9h-0.8c-0.7,0-1.3-0.6-1.3-1.3v-0.8c0-0.7,0.6-1.3,1.3-1.3h0.8c0.7,0,1.3,0.6,1.3,1.3v0.8
		C12.8,15.3,12.2,15.9,11.5,15.9z"/>
	<path class="st0" d="M16.3,15.9h-0.8c-0.7,0-1.3-0.6-1.3-1.3v-0.8c0-0.7,0.6-1.3,1.3-1.3h0.8c0.7,0,1.3,0.6,1.3,1.3v0.8
		C17.6,15.3,17,15.9,16.3,15.9z"/>
	<path class="st0" d="M21.1,15.9h-0.8c-0.7,0-1.3-0.6-1.3-1.3v-0.8c0-0.7,0.6-1.3,1.3-1.3h0.8c0.7,0,1.3,0.6,1.3,1.3v0.8
		C22.4,15.3,21.8,15.9,21.1,15.9z"/>
	<path class="st0" d="M25.9,15.9h-0.8c-0.7,0-1.3-0.6-1.3-1.3v-0.8c0-0.7,0.6-1.3,1.3-1.3h0.8c0.7,0,1.3,0.6,1.3,1.3v0.8
		C27.2,15.3,26.6,15.9,25.9,15.9z"/>
	<path class="st0" d="M6.7,15.9H5.9c-0.7,0-1.3-0.6-1.3-1.3v-0.8c0-0.7,0.6-1.3,1.3-1.3h0.8c0.7,0,1.3,0.6,1.3,1.3v0.8
		C8,15.3,7.4,15.9,6.7,15.9z"/>
</g>
<g>
	<path class="st0" d="M11.5,20.7h-0.7c-0.8,0-1.4-0.6-1.4-1.4v-0.7c0-0.8,0.6-1.4,1.4-1.4h0.7c0.8,0,1.4,0.6,1.4,1.4v0.7
		C12.8,20.1,12.2,20.7,11.5,20.7z"/>
	<path class="st0" d="M16.3,20.7h-0.7c-0.8,0-1.4-0.6-1.4-1.4v-0.7c0-0.8,0.6-1.4,1.4-1.4h0.7c0.8,0,1.4,0.6,1.4,1.4v0.7
		C17.6,20.1,17,20.7,16.3,20.7z"/>
	<path class="st0" d="M21.1,20.7h-0.7c-0.8,0-1.4-0.6-1.4-1.4v-0.7c0-0.8,0.6-1.4,1.4-1.4h0.7c0.8,0,1.4,0.6,1.4,1.4v0.7
		C22.4,20.1,21.8,20.7,21.1,20.7z"/>
	<path class="st0" d="M25.9,20.7h-0.7c-0.8,0-1.4-0.6-1.4-1.4v-0.7c0-0.8,0.6-1.4,1.4-1.4h0.7c0.8,0,1.4,0.6,1.4,1.4v0.7
		C27.2,20.1,26.6,20.7,25.9,20.7z"/>
	<path class="st0" d="M6.6,20.7H5.9c-0.8,0-1.4-0.6-1.4-1.4v-0.7c0-0.8,0.6-1.4,1.4-1.4h0.7c0.8,0,1.4,0.6,1.4,1.4v0.7
		C8,20.1,7.4,20.7,6.6,20.7z"/>
</g>
<g>
	<path class="st0" d="M11.5,25.5h-0.8c-0.7,0-1.3-0.6-1.3-1.3v-0.8c0-0.7,0.6-1.3,1.3-1.3h0.8c0.7,0,1.3,0.6,1.3,1.3v0.8
		C12.8,24.9,12.2,25.5,11.5,25.5z"/>
	<path class="st0" d="M16.3,25.5h-0.8c-0.7,0-1.3-0.6-1.3-1.3v-0.8c0-0.7,0.6-1.3,1.3-1.3h0.8c0.7,0,1.3,0.6,1.3,1.3v0.8
		C17.6,24.9,17,25.5,16.3,25.5z"/>
	<path class="st0" d="M6.7,25.5H5.9c-0.7,0-1.3-0.6-1.3-1.3v-0.8c0-0.7,0.6-1.3,1.3-1.3h0.8c0.7,0,1.3,0.6,1.3,1.3v0.8
		C8,24.9,7.4,25.5,6.7,25.5z"/>
</g>
</svg>
