<?xml version="1.0" encoding="utf-8"?>
<!-- Generator: Adobe Illustrator 21.0.0, SVG Export Plug-In . SVG Version: 6.00 Build 0)  -->
<svg version="1.1" id="Capa_1" xmlns="http://www.w3.org/2000/svg" xmlns:xlink="http://www.w3.org/1999/xlink" x="0px" y="0px"
	 viewBox="0 0 32.3 43.1" style="enable-background:new 0 0 32.3 43.1;" xml:space="preserve">
<style type="text/css">
	.st0{fill:#97DB06;}
</style>
<image style="display:none;overflow:visible;" width="30" height="43" xlink:href="../../../money 2.png"  transform="matrix(1 0 0 1 -0.75 0.3301)">
</image>
<path class="st0" d="M32.3,0H12.2v11.7c-0.2-0.1-0.5-0.1-0.8-0.2c-1-0.1-1.9,0.2-2.5,0.7c-0.8,0.7-1.2,1.6-1.3,2.4
	c-0.4-0.2-0.8-0.3-1.2-0.3c-1.8,0-3.3,1.4-3.3,3.2l0,2.5c-0.1,0-0.2,0-0.4,0c-1.5,0-2.7,1.2-2.7,2.7v9.4c0,1.9,0.3,4.5,1.9,6.7
	c2.1,2.8,5.1,4.2,9.1,4.2c4.6,0,7.8-2.5,8.6-6.7c0.2-1,0.2-3.4,0.2-4.3l0-1h12.4V0z M19.8,25.6c0-1,0-2-0.1-3.1l0-0.6
	c0-0.4,0-0.7,0-1.1c0-0.6-0.1-1.3-0.5-2.1c0.3,0.1,0.5,0.1,0.9,0.1c0.3,0,0.4,0,0.5,0c0.7-0.1,1.2-0.3,1.7-0.7
	c0.4-0.4,0.7-0.8,0.9-1.4c0.1-0.2,0.2-0.6,0.2-0.7c0,0,0,0,0,0h3.2c-0.1,0.5-0.3,0.8-0.6,1c-0.2,0.1-0.5,0.1-0.8,0.1H25l0,0.3
	c0,0,0,0.3,0,0.5v0.7h0.4c0.7,0,1.4-0.2,1.9-0.5c0.6-0.5,1-1.2,1.2-2.1h0.8v-1.3h-0.6c0,0-0.1,0-0.1,0c0-0.1,0-0.2,0-0.2
	c-0.2-1-0.7-1.7-1.6-2.1c-0.5-0.2-1-0.3-1.6-0.3c-1.1,0-1.9,0.4-2.4,1.2c-0.2,0.3-0.4,0.7-0.6,1.3l0,0.1h-3.5c0-0.1,0.1-0.3,0.1-0.4
	c0.1-0.4,0.4-0.7,0.9-0.8c0.2-0.1,0.4-0.1,0.8-0.1l0.2,0l0.3-0.1v-0.2c0-0.1,0-0.7,0-0.9v-0.4l-0.6,0c-0.3,0-0.5,0-0.7,0.1
	c-1.5,0.2-2.4,1.2-2.6,2.7h-1.5V16l1.5,0c0,0.4,0.1,0.7,0.2,1c-0.7-0.2-1.4-0.2-2.1-0.1c-0.1,0-0.2,0.1-0.4,0.1
	c-0.1,0-0.2,0.1-0.3,0.1l0-11.8c1.9-0.1,3.4-1.5,3.5-3.3h8.8c0.1,1.7,1.6,3.1,3.5,3.3v20.5c-1.9,0.1-3.5,1.5-3.6,3.3h-6.7v0
	C19.9,27.9,19.9,26.7,19.8,25.6z M11.1,41.1c-3.3,0-5.6-1.1-7.3-3.3c-1.4-1.9-1.6-4.3-1.6-5.6v-9.4c0-0.4,0.2-0.7,0.5-0.7
	c0.3,0,0.4,0.3,0.4,0.7l0.1,5.9l2.2,0l-0.2-11c0-0.6,0.5-1.2,1.1-1.2c0.6,0,1.1,0.6,1.1,1.3l0.2,7.8l2.2,0l-0.1-6.3L9.8,15
	c0-0.4,0.2-1,0.6-1.3c0.2-0.2,0.5-0.2,0.8-0.2c0.6,0.1,1,0.1,1,2.1L12.1,20c-0.1,0.4,0,0.9,0,1.2l0,0.2l0,0.5l0.2,9l2.2,0l-0.1-9.5
	l0-1.3c0-0.3,0.1-0.5,0.2-0.6c0.2-0.4,0.5-0.6,0.9-0.7c0,0,0.1,0,0.1,0c0.5-0.1,1.2,0,1.6,0.4c0.4,0.5,0.5,1.2,0.5,1.7
	c0,0.3,0,0.6,0,1l0,0.1c0,0.2,0,0.3,0,0.5c0,1,0,2,0.1,3c0,1.1,0,2.2,0,3.4l0,3c0,1.4,0,3.3-0.2,4C16.9,39.3,14.6,41.1,11.1,41.1z
	 M23.8,14.7c0-0.1,0-0.1,0.1-0.2c0.3-0.6,0.5-0.8,1.1-0.9c0.2,0,0.5,0,0.7,0c0.4,0.1,0.6,0.2,0.8,0.5c0.1,0.1,0.1,0.3,0.2,0.4
	c0,0,0,0.1,0,0.1h-1.5C24.6,14.7,24.1,14.7,23.8,14.7z M20.1,16c0.7,0,1.2,0,1.6,0c0,0,0,0,0,0c-0.1,0.3-0.2,0.5-0.3,0.7
	c-0.1,0.2-0.4,0.4-0.6,0.5c-0.1,0-0.2,0.1-0.3,0.1c-0.1,0-0.1,0-0.3,0c-0.4,0-0.5,0-0.7-0.1c-0.5-0.2-0.8-0.5-0.9-1.1
	c0,0,0-0.1,0-0.2H20.1z"/>
</svg>
