<?xml version="1.0" encoding="utf-8"?>
<!-- Generator: Adobe Illustrator 21.0.0, SVG Export Plug-In . SVG Version: 6.00 Build 0)  -->
<svg version="1.1" id="Capa_1" xmlns="http://www.w3.org/2000/svg" xmlns:xlink="http://www.w3.org/1999/xlink" x="0px" y="0px"
	 viewBox="0 0 512 512" style="enable-background:new 0 0 512 512;" xml:space="preserve">
<style type="text/css">
	.st0{fill:#97DB06;}
</style>
<g>
	<g>
		<g>
			<path class="st0" d="M226,211c0-24.8-20.2-45-45-45s-45,20.2-45,45s20.2,45,45,45S226,235.8,226,211z M181,226
				c-8.3,0-15-6.7-15-15s6.7-15,15-15s15,6.7,15,15S189.3,226,181,226z M331,256c-24.8,0-45,20.2-45,45s20.2,45,45,45s45-20.2,45-45
				S355.8,256,331,256z M331,316c-8.3,0-15-6.7-15-15s6.7-15,15-15s15,6.7,15,15S339.3,316,331,316z M325.4,169.3
				c-6.5-5.2-15.9-4.1-21.1,2.3l-120,150c-5.2,6.5-4.1,15.9,2.3,21.1c6.4,5.2,15.9,4.1,21.1-2.3l120-150
				C332.9,183.9,331.8,174.5,325.4,169.3L325.4,169.3z M488.1,215.4c-8-6.6-13-11-14.8-17.6c-1.8-6.7,0.2-12.9,3.7-22.6
				c4.3-12.1,10.2-28.8-0.1-46.7s-27.7-21.1-40.4-23.5c-10.1-1.9-16.5-3.2-21.4-8.1c-4.9-4.9-6.3-11.3-8.1-21.4
				c-2.3-12.7-5.5-30-23.5-40.4s-34.6-4.5-46.7-0.1c-9.6,3.4-15.9,5.4-22.6,3.7c-6.6-1.8-11-6.8-17.6-14.8C288.3,13.8,276.8,0,256,0
				s-32.3,13.8-40.6,23.9c-6.6,8-11,13-17.6,14.8c-6.7,1.8-12.9-0.2-22.6-3.7c-12.1-4.3-28.8-10.2-46.7,0.1
				c-17.9,10.4-21.1,27.7-23.5,40.4c-1.9,10.1-3.2,16.5-8.1,21.4c-4.9,4.9-11.3,6.3-21.4,8.1c-12.7,2.3-30,5.5-40.4,23.5
				s-4.5,34.6-0.1,46.7c3.4,9.6,5.4,15.9,3.7,22.6c-1.8,6.6-6.8,11-14.8,17.6C13.8,223.7,0,235.2,0,256s13.8,32.3,23.9,40.6
				c8,6.6,13,11,14.8,17.6c1.8,6.7-0.2,12.9-3.7,22.6c-4.3,12.1-10.2,28.8,0.1,46.7s27.7,21.1,40.4,23.5c10.1,1.9,16.5,3.2,21.4,8.1
				c4.9,4.9,6.3,11.3,8.1,21.4c2.3,12.7,5.5,30,23.5,40.4c17.9,10.4,34.6,4.5,46.7,0.1c9.6-3.4,15.9-5.4,22.6-3.7
				c6.6,1.8,11,6.8,17.6,14.8c8.3,10.1,19.8,23.9,40.6,23.9s32.3-13.8,40.6-23.9c6.6-8,11-13,17.6-14.8c6.7-1.8,12.9,0.2,22.6,3.7
				c12.1,4.3,28.8,10.2,46.7-0.1s21.1-27.7,23.5-40.4c1.9-10.1,3.2-16.5,8.1-21.4c4.9-4.9,11.3-6.3,21.4-8.1
				c12.7-2.3,30-5.5,40.4-23.5s4.5-34.6,0.1-46.7c-3.4-9.6-5.4-15.9-3.7-22.6c1.8-6.6,6.8-11,14.8-17.6
				c10.1-8.4,23.9-19.8,23.9-40.6S498.2,223.7,488.1,215.4z M469,273.5c-9,7.5-20.3,16.8-24.6,33c-4.3,16,0.5,29.5,4.4,40.4
				c4,11.4,5.3,16.2,2.1,21.7c-3.1,5.4-7.9,6.8-19.8,9c-11.3,2.1-25.4,4.7-37.1,16.4s-14.3,25.8-16.4,37.1
				c-2.2,11.9-3.5,16.7-9,19.8c-5.4,3.1-10.3,1.9-21.7-2.1c-10.9-3.9-24.4-8.6-40.4-4.4c-16.2,4.3-25.5,15.6-33,24.6
				c-7.8,9.5-11.4,13-17.5,13s-9.7-3.6-17.5-13c-7.5-9-16.8-20.3-33-24.6c-14.7-3.9-26.8-0.5-40.4,4.4c-11.4,4-16.2,5.3-21.7,2.1
				c-5.4-3.1-6.8-7.9-9-19.8c-2.1-11.3-4.7-25.4-16.4-37.1S92.3,379.6,81,377.5c-11.9-2.2-16.7-3.5-19.8-9
				c-3.1-5.4-1.9-10.3,2.1-21.7c3.9-10.9,8.6-24.4,4.4-40.4c-4.3-16.2-15.6-25.5-24.6-33c-9.5-7.8-13-11.4-13-17.5s3.6-9.7,13-17.5
				c9-7.5,20.3-16.8,24.6-33c4.3-16-0.5-29.5-4.4-40.4c-4-11.4-5.3-16.2-2.1-21.7c3.1-5.4,7.9-6.8,19.8-9
				c11.3-2.1,25.4-4.7,37.1-16.4s14.3-25.8,16.4-37.1c2.2-11.9,3.5-16.7,9-19.8s10.3-1.9,21.7,2.1c10.9,3.9,24.4,8.7,40.4,4.4
				c16.2-4.3,25.5-15.6,33-24.6c7.8-9.5,11.4-13,17.5-13s9.7,3.6,17.5,13c7.5,9,16.8,20.3,33,24.6c16,4.3,29.5-0.5,40.4-4.4
				c11.4-4,16.2-5.3,21.7-2.1c5.4,3.1,6.8,7.9,9,19.8c2.1,11.3,4.7,25.4,16.4,37.1s25.8,14.3,37.1,16.4c11.9,2.2,16.7,3.5,19.8,9
				c3.1,5.4,1.9,10.3-2.1,21.7c-3.9,10.9-8.6,24.4-4.4,40.4c4.3,16.2,15.6,25.5,24.6,33c9.5,7.8,13,11.4,13,17.5
				C482,262.1,478.4,265.7,469,273.5z"/>
		</g>
	</g>
</g>
</svg>
