<svg width="39" height="40" viewBox="0 0 39 40" fill="none" xmlns="http://www.w3.org/2000/svg">
<g clip-path="url(#clip0)">
<path d="M36.1 22.381C33.7 20.381 30.2 19.619 25.6 19.9048C28.6 17.9048 30.6 14.6667 30.6 10.9524C30.6 4.85714 25.5 0 19.3 0C13 0 7.9 4.85714 7.9 10.8571C7.9 14.381 9.7 17.5238 12.4 19.5238C9.1 19.2381 2.2 19.5238 0 26.5714C0 26.6667 0 26.7619 0 26.7619V39.1429C0 39.619 0.4 40 0.9 40H38.1C38.6 40 39 39.619 39 39.1429V27.4286C38.9 27.2381 38.7 24.5714 36.1 22.381ZM9.5 10.8571C9.5 5.71429 13.9 1.52381 19.2 1.52381C24.6 1.52381 28.9 5.71429 28.9 10.8571C28.9 16 24.6 20.1905 19.2 20.1905H19.1C13.9 20.1905 9.5 16 9.5 10.8571ZM19.1 23.5238H19.9L21.1 26L19.4 29.1429L18.1 26.7619L19.1 23.5238ZM18.1 21.9048C18.1 21.619 18.4 21.3333 18.7 21.3333H20.3C20.6 21.3333 20.9 21.619 20.9 21.9048C20.9 22.1905 20.6 22.4762 20.3 22.4762H18.7C18.3 22.4762 18.1 22.1905 18.1 21.9048ZM21.1 23.3333C21.6 23.0476 22 22.4762 22 21.9048C22 21.7143 22 21.619 21.9 21.5238C22.6 21.3333 23.2 21.1429 23.9 20.8571L21.8 24.7619L21.1 23.3333ZM17.9 23.4286L17.4 25.3333L15.2 21.1429C15.8 21.3333 16.3 21.5238 17 21.619C17 21.7143 17 21.8095 17 21.9048C16.9 22.5714 17.3 23.1429 17.9 23.4286ZM37.2 38.381H1.7V26.9524C3.9 20 11.6 21.0476 13.4 21.4286L18.6 31.3333C18.7 31.619 19 31.8095 19.4 31.8095C19.7 31.8095 20 31.619 20.2 31.3333L25.4 21.619C29.7 21.3333 32.9 22 34.9 23.7143C36.9 25.3333 37.1 27.3333 37.1 27.5238V38.381H37.2Z" fill="#97DB06"/>
</g>
<defs>
<clipPath id="clip0">
<rect width="38.9" height="40" fill="white"/>
</clipPath>
</defs>
</svg>
