<?xml version="1.0" encoding="utf-8"?>
<!-- Generator: Adobe Illustrator 18.1.1, SVG Export Plug-In . SVG Version: 6.00 Build 0)  -->
<svg version="1.1" id="Слой_1" xmlns="http://www.w3.org/2000/svg" xmlns:xlink="http://www.w3.org/1999/xlink" x="0px" y="0px"
	 viewBox="0 0 433.6 70" enable-background="new 0 0 433.6 70" xml:space="preserve">
<linearGradient id="SVGID_1_" gradientUnits="userSpaceOnUse" x1="56.8858" y1="55.2611" x2="14.7389" y2="13.1142">
	<stop  offset="0" style="stop-color:#0056D6"/>
	<stop  offset="1" style="stop-color:#0088F1"/>
</linearGradient>
<path fill="url(#SVGID_1_)" d="M40.2,0C23.7,0,10.4,13.4,10.4,29.8v8.7H0v7.2h10.4v13.9h13.9V70h7.2V59.6h8.7
	C56.6,59.6,70,46.3,70,29.8S56.6,0,40.2,0z M17.5,52.5v-6.8h6.8v6.8H17.5z M40.2,52.5h-8.7v-6.8h8.3c8.5,0,15.5-7,15.5-15.5
	s-7-15.5-15.5-15.5s-15.5,7-15.5,15.5v8.3h-6.8v-8.7c0-12.5,10.2-22.7,22.7-22.7s22.7,10.2,22.7,22.7S52.7,52.5,40.2,52.5z
	 M31.5,38.5v-8.3c0-4.6,3.7-8.3,8.3-8.3s8.3,3.7,8.3,8.3s-3.7,8.3-8.3,8.3H31.5z"/>
<g>
	<path d="M114,16.7c-3.6,0-6.4,1.4-8.4,4.1c-2,2.7-3,6.5-3,11.4c0,10.1,3.8,15.2,11.4,15.2c3.2,0,7.1-0.8,11.6-2.4v8.1
		c-3.7,1.6-7.9,2.3-12.5,2.3c-6.6,0-11.7-2-15.2-6c-3.5-4-5.3-9.8-5.3-17.3c0-4.7,0.9-8.9,2.6-12.4c1.7-3.6,4.2-6.3,7.4-8.2
		c3.2-1.9,7-2.8,11.3-2.8c4.4,0,8.8,1.1,13.3,3.2l-3.1,7.8c-1.7-0.8-3.4-1.5-5.1-2.1C117.3,17,115.6,16.7,114,16.7z"/>
	<path d="M156.6,54.8l-1.8-4.7h-0.2c-1.6,2-3.2,3.4-4.9,4.2c-1.7,0.8-3.9,1.2-6.6,1.2c-3.3,0-6-1-7.9-2.9c-1.9-1.9-2.9-4.6-2.9-8.1
		c0-3.7,1.3-6.4,3.9-8.2c2.6-1.7,6.5-2.7,11.7-2.9l6-0.2v-1.5c0-3.5-1.8-5.3-5.4-5.3c-2.8,0-6,0.8-9.8,2.5l-3.1-6.4
		c4-2.1,8.4-3.1,13.3-3.1c4.7,0,8.2,1,10.7,3c2.5,2,3.7,5.1,3.7,9.3v23.1H156.6z M153.8,38.7l-3.7,0.1c-2.8,0.1-4.8,0.6-6.2,1.5
		c-1.3,0.9-2,2.3-2,4.2c0,2.7,1.5,4,4.6,4c2.2,0,4-0.6,5.3-1.9c1.3-1.3,2-2.9,2-5V38.7z"/>
	<path d="M197.2,44.4c0,3.6-1.2,6.3-3.7,8.1s-6.2,2.8-11.1,2.8c-2.5,0-4.7-0.2-6.5-0.5c-1.8-0.3-3.4-0.8-5-1.5v-7.8
		c1.8,0.8,3.7,1.5,6,2.1c2.2,0.6,4.1,0.8,5.8,0.8c3.4,0,5.2-1,5.2-3c0-0.7-0.2-1.4-0.7-1.8c-0.5-0.5-1.2-1-2.4-1.6
		c-1.1-0.6-2.6-1.3-4.5-2.1c-2.7-1.1-4.6-2.2-5.9-3.1c-1.3-1-2.2-2-2.7-3.3c-0.6-1.2-0.9-2.7-0.9-4.6c0-3.1,1.2-5.5,3.6-7.2
		c2.4-1.7,5.8-2.5,10.2-2.5c4.2,0,8.3,0.9,12.2,2.7l-2.9,6.8c-1.7-0.7-3.4-1.4-4.9-1.8c-1.5-0.5-3.1-0.7-4.6-0.7
		c-2.8,0-4.2,0.8-4.2,2.3c0,0.9,0.5,1.6,1.4,2.2c0.9,0.6,2.9,1.5,5.9,2.8c2.7,1.1,4.7,2.1,6,3.1c1.3,1,2.2,2.1,2.8,3.3
		C196.9,41.2,197.2,42.7,197.2,44.4z"/>
	<path d="M236.6,54.8h-9.5V34.5c0-5-1.9-7.5-5.6-7.5c-2.7,0-4.6,0.9-5.7,2.7c-1.2,1.8-1.8,4.7-1.8,8.8v16.3h-9.5V6.4h9.5v9.9
		c0,0.8-0.1,2.6-0.2,5.4l-0.2,2.8h0.5c2.1-3.4,5.5-5.1,10.1-5.1c4.1,0,7.2,1.1,9.3,3.3c2.1,2.2,3.2,5.3,3.2,9.4V54.8z"/>
	<path d="M264.7,54.8H255V17.3h-12.3v-8H277v8h-12.3V54.8z"/>
	<path d="M314.8,37.3c0,5.7-1.5,10.1-4.5,13.3c-3,3.2-7.1,4.8-12.5,4.8c-3.3,0-6.3-0.7-8.8-2.2c-2.5-1.5-4.5-3.6-5.9-6.3
		c-1.4-2.7-2.1-5.9-2.1-9.6c0-5.7,1.5-10.1,4.4-13.2c3-3.2,7.1-4.7,12.5-4.7c3.3,0,6.3,0.7,8.8,2.2c2.5,1.4,4.5,3.5,5.9,6.2
		C314.1,30.5,314.8,33.7,314.8,37.3z M290.8,37.3c0,3.4,0.6,6,1.7,7.8c1.1,1.8,3,2.6,5.5,2.6c2.5,0,4.3-0.9,5.5-2.6s1.7-4.4,1.7-7.8
		c0-3.4-0.6-6-1.7-7.7c-1.1-1.7-3-2.6-5.5-2.6c-2.5,0-4.4,0.9-5.5,2.6C291.4,31.3,290.8,33.9,290.8,37.3z"/>
	<path d="M337.5,28L347,9.3h10.4l-15.1,27.8v17.7h-9.6V37.4L317.7,9.3h10.4L337.5,28z"/>
	<path d="M393.9,37.3c0,5.7-1.5,10.1-4.5,13.3c-3,3.2-7.1,4.8-12.5,4.8c-3.3,0-6.3-0.7-8.8-2.2c-2.5-1.5-4.5-3.6-5.9-6.3
		c-1.4-2.7-2.1-5.9-2.1-9.6c0-5.7,1.5-10.1,4.4-13.2c3-3.2,7.1-4.7,12.5-4.7c3.3,0,6.3,0.7,8.8,2.2c2.5,1.4,4.5,3.5,5.9,6.2
		C393.2,30.5,393.9,33.7,393.9,37.3z M369.9,37.3c0,3.4,0.6,6,1.7,7.8c1.1,1.8,3,2.6,5.5,2.6c2.5,0,4.3-0.9,5.5-2.6s1.7-4.4,1.7-7.8
		c0-3.4-0.6-6-1.7-7.7c-1.1-1.7-3-2.6-5.5-2.6c-2.5,0-4.4,0.9-5.5,2.6C370.5,31.3,369.9,33.9,369.9,37.3z"/>
	<path d="M426.4,54.8l-1.3-4.4h-0.5c-1,1.6-2.5,2.9-4.3,3.7c-1.9,0.9-4,1.3-6.4,1.3c-4.1,0-7.2-1.1-9.2-3.3
		c-2.1-2.2-3.1-5.3-3.1-9.4V20h9.5v20.3c0,2.5,0.4,4.4,1.3,5.6c0.9,1.3,2.3,1.9,4.3,1.9c2.7,0,4.6-0.9,5.8-2.7
		c1.2-1.8,1.8-4.7,1.8-8.8V20h9.5v34.7H426.4z"/>
</g>
</svg>
