<?xml version="1.0" encoding="utf-8"?>
<!-- Generator: Adobe Illustrator 21.0.0, SVG Export Plug-In . SVG Version: 6.00 Build 0)  -->
<svg version="1.1" id="Слой_1" xmlns:xodm="http://www.corel.com/coreldraw/odm/2003"
	 xmlns="http://www.w3.org/2000/svg" xmlns:xlink="http://www.w3.org/1999/xlink" x="0px" y="0px" viewBox="0 0 1217.2 376.3"
	 style="enable-background:new 0 0 1217.2 376.3;" xml:space="preserve">
<style type="text/css">
	.st0{fill:#4B378B;}
	.st1{fill:url(#SVGID_1_);}
	.st2{fill:url(#SVGID_2_);}
	.st3{fill:url(#SVGID_3_);}
	.st4{fill:url(#SVGID_4_);}
	.st5{fill:url(#SVGID_5_);}
	.st6{fill:url(#SVGID_6_);}
	.st7{fill:url(#SVGID_7_);}
	.st8{fill:#4E368B;}
	.st9{fill:url(#SVGID_8_);}
	.st10{fill:url(#SVGID_9_);}
	.st11{fill:#F0F1F1;}
	.st12{fill:url(#SVGID_10_);}
	.st13{fill:#FFFFFF;}
</style>
<g id="Слой_x0020_1">
	<path class="st0" d="M78.5,155.3c-42.2,0-76.7,34.4-76.7,77v66.9c0,42.6,34.4,77,77,77h66.9c42.6,0,77-34.4,77-77v-66.9
		c0-42.6-34.4-77-77-77C145.8,155.3,78.5,155.3,78.5,155.3z"/>
	
		<linearGradient id="SVGID_1_" gradientUnits="userSpaceOnUse" x1="121.6544" y1="217.51" x2="121.6544" y2="-191.7001" gradientTransform="matrix(0.5003 0 0 -0.5003 294.684 257.2444)">
		<stop  offset="0" style="stop-color:#31418B"/>
		<stop  offset="1" style="stop-color:#5A318B"/>
	</linearGradient>
	<path class="st1" d="M311.1,270c0-8.1,1.3-15.6,3.9-22.7c2.6-7.1,6.5-13.3,11.4-18.5c4.9-5.2,11.1-9.4,17.9-12.7
		c7.1-3.2,14.9-4.5,24-4.5c5.8,0,11.4,0.7,16.3,1.6c2.6,0.7,5.2,1.3,7.8,2c3.9,1.3,5.8,5.2,4.9,9.1l-2.9,10.7
		c-1,3.9-5.2,6.5-9.1,5.2c-0.7-0.3-1.6-0.3-2.6-0.7c-3.6-1-7.5-1.3-11.7-1.3c-9.4,0-16.3,2.9-20.8,8.8c-4.6,5.8-6.8,13.3-6.8,22.7
		c0,10.1,2.3,17.5,6.5,23.1c4.2,5.5,11.7,8.1,22.4,8.1c3.9,0,7.8-0.3,12.3-1c1.6-0.3,2.9-0.7,4.2-1c4.2-1,8.5,1.6,9.1,6.2l2,11
		c0.7,3.9-1.6,7.5-5.2,8.5c-2.3,0.7-4.5,1.3-7.1,1.6c-5.5,1-11.4,1.6-18.2,1.6c-10.1,0-18.8-1.6-26-4.6c-7.1-2.9-13.3-7.1-17.9-12.3
		c-4.5-5.2-8.1-11.4-10.4-18.5C312.1,286.2,311.1,278.4,311.1,270L311.1,270z"/>
	
		<linearGradient id="SVGID_2_" gradientUnits="userSpaceOnUse" x1="321.7129" y1="217.51" x2="321.7129" y2="-191.7001" gradientTransform="matrix(0.5003 0 0 -0.5003 294.684 257.2444)">
		<stop  offset="0" style="stop-color:#31418B"/>
		<stop  offset="1" style="stop-color:#5A318B"/>
	</linearGradient>
	<path class="st2" d="M411.2,270c0-8.1,1.3-15.6,3.9-22.7c2.6-7.1,6.5-13.3,11.4-18.5c4.9-5.2,11-9.4,17.9-12.7
		c7.1-3.2,14.9-4.5,24.1-4.5c5.8,0,11.4,0.7,16.3,1.6c2.6,0.7,5.2,1.3,7.8,2c3.9,1.3,5.8,5.2,4.9,9.1l-2.9,10.7
		c-1,3.9-5.2,6.5-9.1,5.2c-0.7-0.3-1.6-0.3-2.6-0.7c-3.6-1-7.5-1.3-11.7-1.3c-9.4,0-16.3,2.9-20.8,8.8c-4.6,5.8-6.8,13.3-6.8,22.7
		c0,10.1,2.3,17.5,6.5,23.1c4.2,5.5,11.7,8.1,22.4,8.1c3.9,0,7.8-0.3,12.4-1c1.6-0.3,2.9-0.7,4.2-1c4.2-1,8.5,1.6,9.1,6.2l2,11
		c0.6,3.9-1.6,7.5-5.2,8.5c-2.3,0.7-4.5,1.3-7.1,1.6c-5.5,1-11.4,1.6-18.2,1.6c-10.1,0-18.9-1.6-26-4.6c-7.1-2.9-13.3-7.1-17.9-12.3
		c-4.5-5.2-8.1-11.4-10.4-18.5C412.2,286.2,411.2,278.4,411.2,270L411.2,270z"/>
	
		<linearGradient id="SVGID_3_" gradientUnits="userSpaceOnUse" x1="500.3339" y1="216.2099" x2="500.3339" y2="-190.8401" gradientTransform="matrix(0.5003 0 0 -0.5003 294.684 257.2444)">
		<stop  offset="0" style="stop-color:#31418B"/>
		<stop  offset="1" style="stop-color:#5A318B"/>
	</linearGradient>
	<path class="st3" d="M567.2,321.3c-0.7,3.9-4.2,6.5-8.1,6.2c-6.2-0.3-11-1.3-15.3-2.6c-5.8-2-10.1-4.5-13.6-7.8
		c-3.3-3.2-5.5-7.1-6.8-12c-1.3-4.5-2-10.1-2-15.9V173.4c0-3.6,2.6-6.8,6.2-7.5l16.2-2.6c4.5-0.7,8.8,2.9,8.8,7.5V283
		c0,2.9,0.3,5.2,0.7,7.5c0.3,2.3,1.3,4.2,2.3,5.8c1.3,1.6,2.9,2.9,5.2,3.9c0.7,0.3,1.3,0.7,2.3,0.7c3.9,1,6.2,4.5,5.5,8.4
		L567.2,321.3L567.2,321.3z"/>
	
		<linearGradient id="SVGID_4_" gradientUnits="userSpaceOnUse" x1="685.9886" y1="217.51" x2="685.9886" y2="-191.7001" gradientTransform="matrix(0.5003 0 0 -0.5003 294.684 257.2444)">
		<stop  offset="0" style="stop-color:#31418B"/>
		<stop  offset="1" style="stop-color:#5A318B"/>
	</linearGradient>
	<path class="st4" d="M692.3,270c0,8.8-1.3,16.6-3.9,24c-2.6,7.1-6.2,13.3-11.1,18.5c-4.9,5.2-10.4,9.1-17.2,12
		c-6.8,2.9-14.3,4.2-22.4,4.2s-15.6-1.3-22.1-4.2c-6.8-2.9-12.3-6.8-17.2-12c-4.9-5.2-8.4-11.4-11-18.5c-2.6-7.1-3.9-15.3-3.9-24
		c0-8.8,1.3-16.6,4.2-23.7c2.6-7.1,6.5-13.3,11.4-18.2c4.9-5.2,10.7-9.1,17.2-11.7c6.8-2.9,14-4.2,21.8-4.2c8.1,0,15.3,1.3,22.1,4.2
		c6.8,2.9,12.3,6.8,17.2,11.7c4.9,5.2,8.5,11,11.1,18.2C691,253.4,692.3,261.2,692.3,270L692.3,270z M660.2,270
		c0-9.8-2-17.2-5.8-22.7c-3.9-5.5-9.4-8.5-16.6-8.5s-12.7,2.9-16.6,8.5c-3.9,5.5-5.8,13.3-5.8,22.7c0,9.7,2,17.5,5.8,23.1
		c3.9,5.9,9.4,8.5,16.6,8.5s12.7-2.9,16.6-8.5C658.2,287.2,660.2,279.7,660.2,270z"/>
	
		<linearGradient id="SVGID_5_" gradientUnits="userSpaceOnUse" x1="923.3987" y1="217.51" x2="923.3987" y2="-191.7001" gradientTransform="matrix(0.5003 0 0 -0.5003 294.684 257.2444)">
		<stop  offset="0" style="stop-color:#31418B"/>
		<stop  offset="1" style="stop-color:#5A318B"/>
	</linearGradient>
	<path class="st5" d="M756.4,211.8c9.4,0,16.9,1,23.1,3.3c6.2,1.9,11.1,5.2,14.9,9.1c3.6,3.9,6.5,8.8,7.8,14.3
		c1.6,5.5,2.3,12,2.3,18.8v65.3c-4.5,1-10.7,2.3-18.8,3.6c-8.1,1.3-17.6,1.9-29.2,1.9c-7.1,0-13.6-0.7-19.5-1.9
		c-5.9-1.3-10.7-3.3-14.9-6.2c-4.2-2.9-7.5-6.5-9.8-11.4c-2.3-4.5-3.2-10.4-3.2-17.2c0-6.5,1.3-12,3.9-16.6
		c2.6-4.5,6.2-8.1,10.4-10.7c4.2-2.6,9.4-4.5,14.9-5.8c5.5-1.3,11.4-2,17.5-2c4.2,0,7.8,0.3,10.7,0.7c3.3,0.3,5.9,0.6,7.8,1.3v-2.6
		c0-5.2-1.6-9.8-4.9-13c-3.3-3.3-8.8-4.9-16.9-4.9c-5.2,0-10.7,0.3-15.9,1.3c-2,0.3-3.9,0.7-5.9,1c-4.2,1-8.4-2-9.1-6.2l-1.6-10.1
		c-0.7-3.9,2-7.5,5.8-8.5l0,0c2.6-0.7,5.8-1.3,9.1-1.6c3.2-0.7,6.5-1,10.1-1.3C749.2,211.8,752.8,211.8,756.4,211.8L756.4,211.8z
		 M758.9,303.8c3.3,0,6.2,0,8.8-0.3c2.9,0,5.2-0.3,6.8-0.7v-23.7c-1.3-0.3-3.2-0.6-5.8-1c-2.6-0.3-4.9-0.3-6.8-0.3
		c-2.9,0-5.8,0.3-8.5,0.7c-2.6,0.3-4.9,1-6.8,1.9c-1.9,1-3.6,2.3-4.5,3.9s-1.6,3.9-1.6,6.2c0,4.9,1.6,8.5,4.9,10.1
		C748.6,302.8,753.1,303.8,758.9,303.8L758.9,303.8z"/>
	
		<linearGradient id="SVGID_6_" gradientUnits="userSpaceOnUse" x1="1748.3091" y1="217.51" x2="1748.3091" y2="-191.7001" gradientTransform="matrix(0.5003 0 0 -0.5003 294.684 257.2444)">
		<stop  offset="0" style="stop-color:#31418B"/>
		<stop  offset="1" style="stop-color:#5A318B"/>
	</linearGradient>
	<path class="st6" d="M1169.1,211.8c9.4,0,16.9,1,23.1,3.3c6.2,1.9,11,5.2,14.9,9.1c3.6,3.9,6.5,8.8,7.8,14.3
		c1.6,5.5,2.3,12,2.3,18.8v65.3c-4.5,1-10.7,2.3-18.8,3.6c-8.1,1.3-17.6,1.9-29.2,1.9c-7.1,0-13.6-0.7-19.5-1.9
		c-5.8-1.3-10.7-3.3-14.9-6.2c-4.2-2.9-7.5-6.5-9.8-11.4c-2.3-4.5-3.2-10.4-3.2-17.2c0-6.5,1.3-12,3.9-16.6
		c2.6-4.5,6.2-8.1,10.4-10.7c4.2-2.6,9.4-4.5,14.9-5.8c5.5-1.3,11.4-2,17.5-2c4.2,0,7.8,0.3,10.7,0.7c3.2,0.3,5.8,0.6,7.8,1.3l0-2.6
		c0-5.2-1.6-9.8-4.9-13c-3.2-3.3-8.8-4.9-16.9-4.9c-5.2,0-10.7,0.3-15.9,1.3c-2,0.3-3.9,0.7-5.8,1c-4.2,1-8.5-2-9.1-6.2l-1.6-10.1
		c-0.7-3.9,2-7.5,5.8-8.5l0,0c2.6-0.7,5.8-1.3,9.1-1.6c3.2-0.7,6.5-1,10.1-1.3C1161.9,211.8,1165.5,211.8,1169.1,211.8L1169.1,211.8
		z M1171.7,303.8c3.2,0,6.2,0,8.8-0.3c2.9,0,5.2-0.3,6.8-0.7v-23.7c-1.3-0.3-3.3-0.6-5.9-1c-2.6-0.3-4.9-0.3-6.8-0.3
		c-2.9,0-5.8,0.3-8.4,0.7c-2.6,0.3-4.9,1-6.8,1.9c-2,1-3.6,2.3-4.6,3.9c-1,1.6-1.6,3.9-1.6,6.2c0,4.9,1.6,8.5,4.9,10.1
		C1161.3,302.8,1165.8,303.8,1171.7,303.8L1171.7,303.8z"/>
	
		<linearGradient id="SVGID_7_" gradientUnits="userSpaceOnUse" x1="1171.8438" y1="217.51" x2="1171.8438" y2="-191.7001" gradientTransform="matrix(0.5003 0 0 -0.5003 294.684 257.2444)">
		<stop  offset="0" style="stop-color:#31418B"/>
		<stop  offset="1" style="stop-color:#5A318B"/>
	</linearGradient>
	<path class="st7" d="M833,224.1c0-3.6,2.3-6.5,5.8-7.5c4.2-1,9.1-1.9,14.9-2.9c8.5-1.3,17.2-2,26.6-2c9.4,0,17.2,1.3,23.4,3.6
		c6.2,2.6,11,5.8,14.9,10.4c3.6,4.5,6.2,9.8,7.8,15.9c1.6,6.2,2.3,13,2.3,20.8v55.2c0,4.2-3.2,7.5-7.5,7.5h-16.2
		c-4.2,0-7.5-3.3-7.5-7.5v-51c0-10.1-1.3-17.2-3.9-21.4c-2.6-4.2-7.8-6.2-14.9-6.2c-2.3,0-4.5,0-7.1,0.3c-2.6,0.3-4.9,0.3-6.8,0.7
		v78c0,4.2-3.2,7.5-7.5,7.5h-16.2c-4.2,0-7.5-3.3-7.5-7.5v-93.9H833L833,224.1z"/>
	<path class="st8" d="M1098.6,315.8c0,3.6-2.3,6.5-5.8,7.5c-4.2,1-9.1,2-14.9,2.9c-8.5,1.3-17.2,2-26.6,2c-9.4,0-17.2-1.3-23.4-3.6
		c-6.2-2.6-11-5.8-14.9-10.4c-3.6-4.6-6.2-9.8-7.8-15.9c-1.6-6.2-2.3-13-2.3-20.8v-55.2c0-4.2,3.2-7.5,7.5-7.5h16.2
		c4.2,0,7.5,3.2,7.5,7.5v51.3c0,10.1,1.3,17.2,3.9,21.4c2.6,4.2,7.8,6.2,14.9,6.2c2.3,0,4.5,0,7.1-0.3c2.6-0.3,4.9-0.3,6.8-0.7v-78
		c0-4.2,3.2-7.5,7.5-7.5h16.2c4.2,0,7.5,3.2,7.5,7.5v93.6L1098.6,315.8L1098.6,315.8z"/>
	
		<linearGradient id="SVGID_8_" gradientUnits="userSpaceOnUse" x1="1346.8937" y1="217.5199" x2="1346.8937" y2="-191.7001" gradientTransform="matrix(0.5003 0 0 -0.5003 294.684 257.2444)">
		<stop  offset="0" style="stop-color:#31418B"/>
		<stop  offset="1" style="stop-color:#5A318B"/>
	</linearGradient>
	<path class="st9" d="M988.1,309c0,6.2-2,11-5.8,14.3c-3.9,3.2-8.5,4.9-13.6,4.9c-5.2,0-9.8-1.6-13.7-4.9c-3.9-3.3-5.8-8.1-5.8-14.3
		s2-11,5.8-14.3c3.9-3.2,8.5-4.9,13.7-4.9c5.2,0,9.7,1.6,13.6,4.9C986.1,297.9,988.1,302.5,988.1,309z"/>
	
		<linearGradient id="SVGID_9_" gradientUnits="userSpaceOnUse" x1="-588.9913" y1="361.795" x2="665.6788" y2="361.795" gradientTransform="matrix(0.5003 0 0 -0.5003 294.684 257.2444)">
		<stop  offset="0" style="stop-color:#31418B"/>
		<stop  offset="1" style="stop-color:#5A318B"/>
	</linearGradient>
	<path class="st10" d="M103.2,0c-45.7,0-85.6,31.1-97,75.4c-8.8,44.9-4.4,52.8-6.2,77.1c0,0,21.4-39.9,96.5-39.9h425.4
		c45.7,0,85.6-31.1,97-75.4L628.6,0L103.2,0L103.2,0z"/>
	<path class="st11" d="M54.2,66.9h6.2c2.1-2.9,3.8-5.9,5-9.1c1.2-3.2,2.1-6.4,2.6-10c0.6-3.5,0.9-7,0.9-10.6c0-3.8,0-7.3,0-11.4
		h29.9v41.1h7.3v20.5h-8.5V74.5H62.7v12.9h-8.5C54.2,87.4,54.2,66.9,54.2,66.9z M77.4,33.4c0,2.9-0.3,5.6-0.6,8.5
		c-0.3,2.9-0.6,5.9-0.9,8.8c-0.6,2.9-1.2,5.6-2.1,8.5c-0.9,2.6-2.1,5.3-3.5,7.6h19.9V33.4C90.3,33.4,77.4,33.4,77.4,33.4z"/>
	<path class="st11" d="M124.6,36.7c2.9,0,5.3,0.3,7,1.2c2.1,0.6,3.5,1.8,4.7,2.9c1.2,1.2,2.1,2.9,2.3,4.7c0.6,1.8,0.9,3.8,0.9,5.9
		v22.3c-1.2,0.3-3.2,0.6-5.9,0.9c-2.6,0.3-5.6,0.6-8.8,0.6c-2.3,0-4.1-0.3-6.2-0.6c-1.8-0.3-3.5-1.2-4.7-2.1
		c-1.2-0.9-2.3-2.1-2.9-3.5c-0.6-1.5-1.2-3.2-1.2-5.6c0-2.1,0.3-3.8,1.2-5.3c0.9-1.5,2.1-2.6,3.2-3.5c1.2-0.9,2.9-1.5,5-2.1
		c1.8-0.3,3.8-0.6,5.9-0.6c0.9,0,2.1,0,2.9,0.3c1.2,0,2.1,0.3,3.2,0.6v-1.5c0-0.9,0-2.1-0.3-2.9c-0.3-0.9-0.6-1.8-1.2-2.3
		c-0.6-0.6-1.5-1.2-2.3-1.5c-0.9-0.3-2.1-0.6-3.5-0.6c-2.1,0-3.8,0-5.3,0.3c-1.8,0.3-2.9,0.6-4.1,0.9l-1.2-6.7
		c1.2-0.3,2.6-0.9,4.7-1.2C120.2,36.9,122.3,36.7,124.6,36.7L124.6,36.7z M125.5,68.3c2.6,0,4.7,0,5.9-0.3v-9.4
		c-0.6,0-1.2-0.3-2.1-0.3s-1.8-0.3-2.9-0.3c-0.9,0-1.8,0-2.9,0.3c-0.9,0-1.8,0.3-2.6,0.9c-0.9,0.3-1.5,0.9-1.8,1.5
		c-0.6,0.6-0.6,1.5-0.6,2.6c0,2.1,0.6,3.5,1.8,4.1C121.7,68,123.1,68.3,125.5,68.3z"/>
	<path class="st11" d="M183,56c0,2.9-0.3,5.3-1.2,7.6c-0.6,2.3-1.8,4.4-3.2,6.2c-1.5,1.8-2.9,2.9-5,3.8c-2.1,0.9-4.4,1.5-7,1.5
		c-1.8,0-3.2-0.3-4.7-0.6c-1.5-0.3-2.6-0.9-3.5-1.5v14.4h-8.5V38.7c1.8-0.6,3.8-0.9,6.4-1.5c2.6-0.3,5.3-0.6,7.9-0.6
		c2.9,0,5.6,0.6,7.9,1.5c2.3,0.9,4.1,2.1,5.9,3.8c1.5,1.8,2.9,3.8,3.8,6.2C182.7,50.4,183,53.1,183,56z M174.2,56.3
		c0-3.8-0.9-6.7-2.6-8.8c-1.8-2.1-4.4-3.2-8.2-3.2c-0.9,0-1.8,0-2.3,0c-0.9,0-1.8,0.3-2.6,0.6v20.8c0.9,0.6,1.8,0.9,2.9,1.5
		c1.2,0.6,2.6,0.6,4.1,0.6c3.2,0,5.3-1.2,6.7-3.2C173.6,62.5,174.2,59.8,174.2,56.3L174.2,56.3z"/>
	<path class="st11" d="M224,37.5v36.7h-8.5c0-2.6,0-5.3,0-7.9c0-2.6,0-5,0-7.3c0-2.3,0-4.1,0-5.9c0-1.8,0-2.9,0-3.8
		c-1.5,1.8-2.9,3.8-4.4,6.2c-1.5,2.3-2.9,4.4-4.4,6.4c-1.5,2.3-2.9,4.4-4.1,6.5c-1.2,2.1-2.3,4.1-3.5,5.6h-7.6V37.5h8.2
		c0,2.6,0,5.3,0,7.6s0,4.7,0,6.7c0,2.1,0,3.8,0,5.3c0,1.5,0,2.6,0,3.5c1.2-2.1,2.6-4.1,4.1-6.2c1.5-2.1,2.9-4.1,4.1-6.2
		c1.5-2.1,2.9-4.1,4.1-5.9c1.2-1.8,2.6-3.5,4.1-5L224,37.5L224,37.5z"/>
	<path class="st11" d="M243.4,50.1c0,2.1-0.3,4.1-0.3,6.2c0,2.1-0.3,4.1-0.3,6.4c0,2.1-0.3,4.1-0.3,6.2c0,2.1-0.3,3.8-0.3,5.6H234
		c0-2.6,0.3-5.6,0.3-8.8c0.3-3.2,0.3-6.4,0.6-9.7c0.3-3.2,0.6-6.4,0.9-9.7c0.3-3.2,0.6-6.2,0.9-8.8h7.3c1.8,2.9,3.5,6.2,5.3,10
		c1.8,3.8,3.8,8.2,6.2,13.2c2.3-5,4.4-9.4,6.5-13.5c2.1-4.1,3.5-7.3,5-9.7h7.3c0.3,2.6,0.6,5.6,0.9,8.8c0.3,3.2,0.6,6.4,0.9,9.7
		c0.3,3.2,0.6,6.5,0.6,9.7c0.3,3.2,0.3,6.2,0.3,8.8h-8.5c0-3.8-0.3-7.9-0.6-12c-0.3-4.1-0.6-8.2-0.9-12.3c-0.6,1.5-1.5,2.9-2.3,4.7
		c-0.9,1.8-1.8,3.5-2.3,5.3c-0.6,1.8-1.5,3.5-2.3,5.3c-0.9,1.8-1.5,3.2-2.1,4.4h-6.5c-0.6-1.2-1.2-2.6-2.1-4.4
		c-0.9-1.8-1.5-3.5-2.3-5.3c-0.9-1.8-1.5-3.5-2.3-5.3C244.8,53.4,243.9,51.6,243.4,50.1L243.4,50.1z"/>
	<path class="st11" d="M302.9,35.8c1.5-0.6,2.6-1.2,4.1-2.1c1.5-0.6,2.9-1.5,4.4-2.3c1.5-0.9,2.6-1.8,4.1-2.6
		c1.2-0.9,2.3-2.1,3.5-2.9h7.3v48.7h-10.6V39.3c-1.5,0.9-2.9,1.8-4.7,2.6c-1.8,0.9-3.5,1.5-5,2.1L302.9,35.8z"/>
	<path class="st11" d="M375.3,49.8c0,8.2-1.5,14.4-4.7,18.8c-3.2,4.4-7.3,6.4-12.9,6.4c-5.6,0-9.7-2.1-12.9-6.4
		c-3.2-4.4-4.7-10.6-4.7-18.8c0-4.1,0.3-7.6,1.2-10.8c0.9-3.2,2.1-5.9,3.5-7.9c1.5-2.1,3.5-3.8,5.6-5c2.1-1.2,4.7-1.8,7.3-1.8
		c5.6,0,9.7,2.1,12.9,6.5C373.8,35.5,375.3,41.6,375.3,49.8L375.3,49.8z M364.7,49.8c0-2.3,0-4.7-0.3-6.7c-0.3-2.1-0.6-3.8-1.2-5.3
		c-0.6-1.5-1.2-2.6-2.1-3.2c-0.9-0.9-2.1-1.2-3.2-1.2c-1.2,0-2.3,0.3-3.2,1.2c-0.9,0.9-1.5,2.1-2.1,3.2c-0.6,1.5-0.9,3.2-1.2,5.3
		c-0.3,2.1-0.3,4.1-0.3,6.7c0,2.3,0,4.7,0.3,6.7c0.3,2.1,0.6,3.8,1.2,5.3c0.6,1.5,1.2,2.6,2.1,3.2c0.9,0.9,2.1,1.2,3.2,1.2
		c1.2,0,2.3-0.3,3.2-1.2c0.9-0.9,1.5-2.1,2.1-3.2c0.6-1.5,0.9-3.2,1.2-5.3C364.4,54.5,364.7,52.5,364.7,49.8z"/>
	<path class="st11" d="M415.2,49.8c0,8.2-1.5,14.4-4.7,18.8c-3.2,4.4-7.3,6.4-12.9,6.4c-5.6,0-9.7-2.1-12.9-6.4
		c-3.2-4.4-4.7-10.6-4.7-18.8c0-4.1,0.3-7.6,1.2-10.8c0.9-3.2,2.1-5.9,3.5-7.9c1.5-2.1,3.5-3.8,5.6-5c2.1-1.2,4.7-1.8,7.3-1.8
		c5.6,0,9.7,2.1,12.9,6.5C413.7,35.5,415.2,41.6,415.2,49.8L415.2,49.8z M404.6,49.8c0-2.3,0-4.7-0.3-6.7c-0.3-2.1-0.6-3.8-1.2-5.3
		c-0.6-1.5-1.2-2.6-2.1-3.2c-0.9-0.9-2.1-1.2-3.2-1.2c-1.2,0-2.3,0.3-3.2,1.2c-0.9,0.9-1.5,2.1-2.1,3.2c-0.6,1.5-0.9,3.2-1.2,5.3
		c-0.3,2.1-0.3,4.1-0.3,6.7c0,2.3,0,4.7,0.3,6.7c0.3,2.1,0.6,3.8,1.2,5.3c0.6,1.5,1.2,2.6,2.1,3.2c0.9,0.9,2.1,1.2,3.2,1.2
		c1.2,0,2.3-0.3,3.2-1.2c0.9-0.9,1.5-2.1,2.1-3.2c0.6-1.5,0.9-3.2,1.2-5.3C404.3,54.5,404.6,52.5,404.6,49.8z"/>
	<polygon class="st11" points="463.5,44.6 447.7,44.6 447.7,74.2 439.2,74.2 439.2,37.5 463.5,37.5 	"/>
	<path class="st11" d="M502.8,56c0,2.9-0.3,5.3-1.2,7.6c-0.6,2.3-1.8,4.4-3.2,6.2c-1.5,1.8-2.9,2.9-5,3.8c-2.1,0.9-4.4,1.5-7,1.5
		c-1.8,0-3.2-0.3-4.7-0.6c-1.5-0.3-2.6-0.9-3.5-1.5v14.4h-8.5V38.7c1.8-0.6,3.8-0.9,6.4-1.5c2.6-0.3,5.3-0.6,7.9-0.6
		c2.9,0,5.6,0.6,7.9,1.5c2.3,0.9,4.1,2.1,5.9,3.8c1.5,1.8,2.9,3.8,3.8,6.2C502.5,50.4,502.8,53.1,502.8,56L502.8,56z M494.3,56.3
		c0-3.8-0.9-6.7-2.6-8.8c-1.8-2.1-4.4-3.2-8.2-3.2c-0.9,0-1.8,0-2.3,0c-0.9,0-1.8,0.3-2.6,0.6v20.8c0.9,0.6,1.8,0.9,2.9,1.5
		c1.2,0.6,2.6,0.6,4.1,0.6c3.2,0,5.3-1.2,6.7-3.2C493.7,62.5,494.3,59.8,494.3,56.3L494.3,56.3z"/>
	<polygon class="st11" points="542.4,74.2 533.9,74.2 533.9,58.9 520.1,58.9 520.1,74.2 511.6,74.2 511.6,37.5 520.1,37.5 
		520.1,51.9 533.9,51.9 533.9,37.5 542.4,37.5 	"/>
	<path class="st11" d="M564.4,69.8c0,1.8-0.6,2.9-1.8,4.1c-1.2,1.2-2.3,1.5-4.1,1.5c-1.5,0-2.9-0.6-4.1-1.5
		c-1.2-1.2-1.8-2.3-1.8-4.1c0-1.8,0.6-2.9,1.8-4.1c1.2-1.2,2.3-1.5,4.1-1.5c1.5,0,2.9,0.6,4.1,1.5C563.8,66.9,564.4,68,564.4,69.8z
		 M563.2,38.7c0,3.8,0,7.3-0.3,10.6c-0.3,3.2-0.6,6.4-1.2,9.7h-6.2c-0.6-3.2-0.9-6.4-1.2-9.7c-0.3-3.2-0.3-6.7-0.3-10.6V25.8h9.1
		L563.2,38.7L563.2,38.7z"/>
	
		<linearGradient id="SVGID_10_" gradientUnits="userSpaceOnUse" x1="-6373.6714" y1="-82.735" x2="-6273.2114" y2="-82.735" gradientTransform="matrix(0.5003 0 0 -0.5003 294.684 257.2444)">
		<stop  offset="0" style="stop-color:#939598"/>
		<stop  offset="0.1294" style="stop-color:#A8AAAC"/>
		<stop  offset="0.3804" style="stop-color:#CECFD0"/>
		<stop  offset="0.6314" style="stop-color:#E9E9EA"/>
		<stop  offset="0.8392" style="stop-color:#F9F9F9"/>
		<stop  offset="1" style="stop-color:#FFFFFF"/>
	</linearGradient>
	<path class="st12" d="M148.8,338.9l-64.5-24.2c-12.9-4.8-22.6-19.3-22.6-33.9v-22.6l87,32.2V338.9L148.8,338.9z"/>
	<path class="st13" d="M148.8,242.2l-87,32.2v-22.6c0-16.1,9.7-29,22.6-33.9l64.5-24.2V242.2L148.8,242.2L148.8,242.2z"/>
</g>
</svg>
