<?xml version="1.0" encoding="utf-8"?>
<!-- Generator: Adobe Illustrator 21.0.0, SVG Export Plug-In . SVG Version: 6.00 Build 0)  -->
<svg version="1.1" id="Слой_1" xmlns="http://www.w3.org/2000/svg" xmlns:xlink="http://www.w3.org/1999/xlink" x="0px" y="0px"
	 viewBox="0 0 72.4 25.3" style="enable-background:new 0 0 72.4 25.3;" xml:space="preserve">
<style type="text/css">
	.st0{fill:#67579E;}
	.st1{fill:#56C1A3;}
</style>
<g>
	<g>
		<path class="st0" d="M11.8,24.4c-1.2,0.6-2.6,0.9-4.4,0.9c-2.2,0-4-0.7-5.4-2.1c-1.3-1.4-2-3.2-2-5.5c0-2.4,0.8-4.4,2.3-5.9
			s3.4-2.3,5.8-2.3c1.5,0,2.7,0.2,3.7,0.6V12c-1.1-0.6-2.4-0.9-3.7-0.9c-1.8,0-3.3,0.6-4.4,1.8C2.6,14.1,2,15.6,2,17.6
			c0,1.9,0.5,3.3,1.6,4.5c1.1,1.1,2.4,1.7,4.1,1.7c1.6,0,3-0.3,4.1-1C11.8,22.8,11.8,24.4,11.8,24.4z"/>
		<path class="st0" d="M19.3,16.9c-0.3-0.2-0.7-0.3-1.2-0.3c-0.7,0-1.3,0.3-1.8,1c-0.5,0.6-0.7,1.5-0.7,2.6v5.1H14v-9.9h1.6v2l0,0
			c0.2-0.7,0.6-1.2,1.1-1.6s1-0.6,1.6-0.6c0.4,0,0.8,0,1,0.1C19.3,15.3,19.3,16.9,19.3,16.9z"/>
		<path class="st0" d="M31,20.6h-7.8c0,1.1,0.4,1.9,1,2.5s1.5,0.9,2.6,0.9c1.2,0,2.4-0.4,3.4-1.1v1.5c-1,0.6-2.2,0.9-3.8,0.9
			c-1.5,0-2.8-0.4-3.7-1.3s-1.3-2.1-1.3-3.7c0-1.5,0.5-2.7,1.5-3.7s2.2-1.4,3.6-1.4s2.5,0.4,3.3,1.2c0.8,0.8,1.2,2,1.2,3.4V20.6z
			 M29.2,19.2c0-0.9-0.3-1.6-0.7-2.1c-0.5-0.5-1.2-0.7-2-0.7s-1.5,0.3-2.1,0.8s-0.9,1.2-1.1,2.1h5.9V19.2z"/>
		<path class="st0" d="M43.1,25.2h-1.7v-1.8c-0.8,1.2-2.1,1.8-3.8,1.8c-1.4,0-2.4-0.4-3.3-1.3c-0.8-0.9-1.3-2-1.3-3.5
			c0-1.6,0.4-2.9,1.2-3.8c0.9-1,2.1-1.4,3.6-1.4s2.6,0.5,3.3,1.6l0.3-0.1V8.1h1.7C43.1,8.1,43.1,25.2,43.1,25.2z M41.3,20.7v-1.4
			c0-0.8-0.3-1.4-0.9-2c-0.6-0.5-1.3-0.8-2.2-0.8c-1.1,0-1.9,0.3-2.5,1s-0.9,1.6-0.8,2.9c0,1.1,0.3,2,0.9,2.6c0.6,0.6,1.4,1,2.4,1
			s1.7-0.3,2.3-0.9C41,22.4,41.3,21.6,41.3,20.7z"/>
		<path class="st0" d="M46.4,12.9c-0.3,0-0.6-0.1-0.8-0.3c-0.2-0.2-0.3-0.4-0.3-0.7c0-0.3,0.1-0.5,0.3-0.7c0.2-0.2,0.5-0.3,0.8-0.3
			s0.6,0.1,0.8,0.3c0.2,0.2,0.3,0.4,0.3,0.7c0,0.3-0.1,0.5-0.3,0.7C47,12.8,46.7,12.9,46.4,12.9z M47.3,25.3h-1.8v-9.9h1.8V25.3z"/>
		<polygon class="st0" points="54.4,15.3 52.5,15.3 52.5,12 50.8,12 50.8,15.3 49.7,15.3 49.7,16.8 50.8,16.8 50.8,25.3 52.5,25.3 
			52.5,16.8 54.4,16.8 		"/>
	</g>
	<path class="st1" d="M64.6,0c-4.5,0-7.3,2.4-7.3,8.8c0,3.6,2.3,7.6,4.3,10.5l6.5-11.6h-7V6.3h7.8h1.5l-0.9,1.4l-7.1,12.7
		c1.2,1.6,2.2,2.7,2.2,2.7s7.8-7.9,7.8-14.3S69.1,0,64.6,0z"/>
</g>
</svg>
