<svg width="180" height="48" viewBox="0 0 180 48" fill="none" xmlns="http://www.w3.org/2000/svg">
<path fill-rule="evenodd" clip-rule="evenodd" d="M32.9498 1.88136C37.195 4.0738 39.6799 9.13108 39.8877 12.6733C38.0799 7.02284 34.8274 4.41125 31.4234 2.88184C30.2415 3.75008 29.9226 3.97213 29.9226 3.97213L27.4371 3.40952C27.4371 3.40952 27.3042 2.99598 26.8468 1.63124C17.346 1.12352 10.1697 7.03656 6.01496 14.0137C6.82495 15.3223 7.10763 15.8431 7.10763 15.8431L5.69921 19.0753C5.69921 19.0753 5.19624 19.1564 3.61746 19.3155C-1.40282 36.0467 9.24367 42.5554 9.24367 42.5554L11.3791 41.5561L13.8783 42.692C13.8783 42.692 13.9738 43.0849 14.3232 44.7715C19.9875 46.2055 27.8259 44.0829 34.2652 37.7089C29.4365 45.7302 17.1382 49.4128 9.16567 45.1208C-0.560388 39.8864 -2.87802 25.6577 3.81528 13.6544C10.5086 1.65183 23.6424 -2.92642 32.9498 1.88136Z" fill="#C51617"/>
<path fill-rule="evenodd" clip-rule="evenodd" d="M19.2232 3.61037C19.5147 3.61037 19.7505 3.84676 19.7505 4.13867C19.7505 4.42996 19.5147 4.66636 19.2232 4.66636C18.9318 4.66636 18.6953 4.42996 18.6953 4.13867C18.6959 3.84676 18.9318 3.61037 19.2232 3.61037Z" fill="#C51617"/>
<path fill-rule="evenodd" clip-rule="evenodd" d="M22.0484 42.4818C22.3399 42.4818 22.5757 42.7182 22.5757 43.0095C22.5757 43.3014 22.3399 43.5371 22.0484 43.5371C21.757 43.5371 21.5205 43.3008 21.5205 43.0095C21.5205 42.7182 21.7564 42.4818 22.0484 42.4818Z" fill="#C51617"/>
<path fill-rule="evenodd" clip-rule="evenodd" d="M11.8135 8.75496C12.1536 8.75496 12.4288 9.03066 12.4288 9.37122C12.4288 9.71178 12.153 9.98747 11.8135 9.98747C11.4741 9.98747 11.1982 9.71178 11.1982 9.37122C11.1982 9.03128 11.4734 8.75496 11.8135 8.75496Z" fill="#C51617"/>
<path fill-rule="evenodd" clip-rule="evenodd" d="M3.92451 25.6221C4.2646 25.6221 4.5398 25.8978 4.5398 26.2384C4.5398 26.5783 4.2646 26.854 3.92451 26.854C3.58441 26.854 3.30859 26.5783 3.30859 26.2384C3.30859 25.8978 3.58441 25.6221 3.92451 25.6221Z" fill="#C51617"/>
<path fill-rule="evenodd" clip-rule="evenodd" d="M5.46552 34.9626C5.80562 34.9626 6.08081 35.2383 6.08081 35.5782C6.08081 35.9188 5.80499 36.1945 5.46552 36.1945C5.12543 36.1945 4.84961 35.9188 4.84961 35.5782C4.84961 35.2383 5.12543 34.9626 5.46552 34.9626Z" fill="#C51617"/>
<path fill-rule="evenodd" clip-rule="evenodd" d="M36.6337 8.23726C36.8764 8.23726 37.0736 8.43436 37.0736 8.677C37.0736 8.92026 36.8764 9.11736 36.6337 9.11736C36.3909 9.11736 36.1943 8.92026 36.1943 8.677C36.1943 8.43436 36.3909 8.23726 36.6337 8.23726Z" fill="#C51617"/>
<path fill-rule="evenodd" clip-rule="evenodd" d="M31.6196 37.941C31.8624 37.941 32.0596 38.1374 32.0596 38.3813C32.0596 38.624 31.8624 38.8211 31.6196 38.8211C31.3769 38.8211 31.1797 38.624 31.1797 38.3813C31.1803 38.1374 31.3769 37.941 31.6196 37.941Z" fill="#C51617"/>
<path fill-rule="evenodd" clip-rule="evenodd" d="M14.2129 38.0065V10.6873H24.7221C26.9798 10.6873 28.9698 11.0466 30.689 11.7651C32.4082 12.4831 33.846 13.4573 35.0004 14.6892C36.1549 15.9205 37.0279 17.3632 37.6176 19.018C38.2079 20.6721 38.5037 22.4354 38.5037 24.3085C38.5037 26.3862 38.1761 28.2655 37.5215 29.9459C36.8675 31.6256 35.9371 33.0627 34.7308 34.2553C33.524 35.4473 32.0744 36.371 30.3814 37.0253C28.6872 37.679 26.8007 38.0065 24.7221 38.0065H14.2129ZM30.8812 24.3085C30.8812 23.2569 30.7402 22.2951 30.4575 21.4231C30.1754 20.5505 29.7717 19.807 29.245 19.1914C28.7196 18.5757 28.0712 18.0942 27.3012 17.748C26.5311 17.4019 25.6712 17.2285 24.7221 17.2285H21.7193V31.4647H24.7221C25.6974 31.4647 26.5698 31.2857 27.3393 30.9264C28.1093 30.5671 28.757 30.0669 29.2837 29.4263C29.8091 28.7851 30.2079 28.0279 30.4769 27.1553C30.7464 26.2839 30.8812 25.3346 30.8812 24.3085Z" fill="#005C32"/>
<path fill-rule="evenodd" clip-rule="evenodd" d="M22.473 35.5651H7.87077C8.17966 36.4028 8.5391 37.218 8.94908 38.0058H22.473V35.5651ZM22.473 10.6904H12.6932C12.1884 11.3023 11.7042 11.9416 11.2442 12.609C11.1244 12.7824 11.0077 12.9565 10.8929 13.1311H22.473V10.6904ZM22.473 14.668H9.95376C9.49822 15.4695 9.08886 16.2847 8.72443 17.1087H22.473V14.668ZM22.473 31.5876H6.81055C6.95158 32.4153 7.13816 33.2299 7.3678 34.0282H22.473V31.5876Z" fill="#005C32"/>
<path fill-rule="evenodd" clip-rule="evenodd" d="M47.7943 37.9684C46.4707 37.9684 45.3113 37.7588 44.3134 37.3391C43.3169 36.9199 42.4776 36.361 41.7967 35.6624C41.1166 34.9639 40.6042 34.1536 40.2592 33.2317C39.9141 32.3086 39.7412 31.3443 39.7412 30.3382C39.7412 29.3321 39.9147 28.3678 40.2592 27.4459C40.6036 26.5234 41.1166 25.7126 41.7967 25.014C42.4776 24.3154 43.3169 23.7559 44.3134 23.3374C45.3113 22.9176 46.4713 22.708 47.7943 22.708C49.0997 22.708 50.256 22.9176 51.262 23.3374C52.2685 23.7565 53.1122 24.3154 53.7924 25.014C54.4726 25.7126 54.9849 26.5228 55.33 27.4459C55.6744 28.3678 55.8479 29.3321 55.8479 30.3382C55.8479 31.3443 55.6744 32.3086 55.33 33.2317C54.9855 34.1536 54.4726 34.9639 53.7924 35.6624C53.1116 36.361 52.2679 36.9205 51.262 37.3391C50.2554 37.7588 49.0991 37.9684 47.7943 37.9684ZM45.1939 30.3382C45.1939 31.3262 45.4367 32.099 45.9203 32.6585C46.4052 33.2174 47.0298 33.4968 47.7936 33.4968C48.5587 33.4968 49.1827 33.2174 49.6682 32.6585C50.1524 32.099 50.3946 31.3262 50.3946 30.3382C50.3946 29.3508 50.1518 28.5774 49.6682 28.0179C49.1833 27.4597 48.5587 27.1802 47.7936 27.1802C47.0298 27.1802 46.4052 27.4597 45.9203 28.0179C45.4367 28.5774 45.1939 29.3502 45.1939 30.3382ZM65.1871 22.8477C64.3478 23.0149 63.6819 23.3598 63.1871 23.8813C62.6935 24.4033 62.3534 25.1668 62.1668 26.1735C62.6517 25.5772 63.285 25.0976 64.0682 24.7339C64.8514 24.3703 65.7924 24.1881 66.8925 24.1881C67.7319 24.1881 68.5425 24.3603 69.3256 24.7058C70.1088 25.0501 70.8033 25.5161 71.4086 26.103C72.0145 26.69 72.495 27.3692 72.8489 28.1433C73.2033 28.9167 73.3799 29.7407 73.3799 30.6164C73.3799 31.5851 73.2077 32.5126 72.8626 33.397C72.5181 34.2827 72.0052 35.0649 71.3244 35.7448C70.6442 36.4253 69.8011 36.9654 68.7946 37.3659C67.7874 37.7657 66.6317 37.9665 65.3269 37.9665C62.6804 37.9665 60.676 37.2305 59.3156 35.7579C57.9553 34.2859 57.2744 32.134 57.2744 29.3022C57.2744 27.4759 57.4373 25.924 57.7637 24.6485C58.09 23.3723 58.5793 22.3051 59.2314 21.4481C59.8835 20.591 60.7134 19.9112 61.72 19.4084C62.7272 18.9044 63.9103 18.5227 65.2719 18.262L71.6751 17.0039V21.5603L65.1871 22.8477ZM62.7265 30.6176C62.7265 31.5121 62.968 32.2157 63.4529 32.7271C63.9378 33.2398 64.5624 33.4956 65.3262 33.4956C66.0907 33.4956 66.7153 33.2348 67.1996 32.7128C67.6844 32.1913 67.9272 31.4921 67.9272 30.617C67.9272 29.9652 67.685 29.4294 67.1996 29.0103C66.7153 28.5905 66.0907 28.3809 65.3262 28.3809C64.5624 28.3809 63.9378 28.5905 63.4529 29.0103C62.968 29.43 62.7265 29.9658 62.7265 30.6176ZM85.2632 37.9684C84.2005 37.9684 83.2782 37.7588 82.495 37.3391C81.7119 36.9199 81.106 36.3099 80.6773 35.509V43.6419H75.3643V22.9874H79.9777V25.1961C80.5 24.3946 81.1428 23.7796 81.9072 23.3511C82.671 22.9226 83.6127 22.708 84.7315 22.708C85.7007 22.708 86.6049 22.8995 87.4429 23.2812C88.2822 23.663 89.0005 24.1894 89.5964 24.8605C90.193 25.5317 90.6641 26.3332 91.0092 27.2644C91.3537 28.1957 91.5266 29.2018 91.5266 30.2821C91.5266 31.3817 91.368 32.4022 91.051 33.3434C90.734 34.2846 90.296 35.0992 89.7375 35.7891C89.1777 36.4783 88.5163 37.0141 87.7524 37.3958C86.988 37.7769 86.1581 37.9684 85.2632 37.9684ZM83.418 33.4962C83.8092 33.4962 84.1687 33.412 84.4944 33.2448C84.8208 33.077 85.1003 32.8438 85.3337 32.5462C85.5665 32.2475 85.7531 31.9032 85.8935 31.5115C86.0326 31.1204 86.1031 30.7012 86.1031 30.2534C86.1031 29.3215 85.8373 28.5761 85.3063 28.0173C84.7746 27.459 84.0713 27.1796 83.1946 27.1796C82.2067 27.1796 81.368 27.6829 80.6779 28.6884V31.232C80.9393 31.8838 81.3212 32.4252 81.8242 32.8537C82.3272 33.2823 82.8588 33.4962 83.418 33.4962ZM100.67 37.9684C99.3468 37.9684 98.1874 37.7588 97.1896 37.3391C96.193 36.9199 95.3537 36.361 94.6729 35.6624C93.9927 34.9639 93.4804 34.1536 93.1353 33.2317C92.7902 32.3086 92.6174 31.3443 92.6174 30.3382C92.6174 29.3321 92.7902 28.3678 93.1353 27.4459C93.4797 26.5234 93.9927 25.7126 94.6729 25.014C95.3537 24.3154 96.193 23.7559 97.1896 23.3374C98.1874 22.9176 99.3468 22.708 100.67 22.708C101.975 22.708 103.132 22.9176 104.138 23.3374C105.145 23.7565 105.988 24.3154 106.669 25.014C107.349 25.7126 107.861 26.5228 108.206 27.4459C108.551 28.3678 108.724 29.3321 108.724 30.3382C108.724 31.3443 108.551 32.3086 108.206 33.2317C107.861 34.1536 107.349 34.9639 106.669 35.6624C105.988 36.361 105.144 36.9205 104.138 37.3391C103.132 37.7588 101.975 37.9684 100.67 37.9684ZM98.0701 30.3382C98.0701 31.3262 98.3128 32.099 98.7964 32.6585C99.2813 33.2174 99.906 33.4968 100.67 33.4968C101.434 33.4968 102.059 33.2174 102.544 32.6585C103.028 32.099 103.271 31.3262 103.271 30.3382C103.271 29.3508 103.028 28.5774 102.544 28.0179C102.059 27.4597 101.434 27.1802 100.67 27.1802C99.906 27.1802 99.2813 27.4597 98.7964 28.0179C98.3128 28.5774 98.0701 29.3502 98.0701 30.3382Z" fill="#005C32"/>
<path fill-rule="evenodd" clip-rule="evenodd" d="M109.898 20.6397C110.905 19.671 112.028 18.93 113.267 18.4173C114.507 17.9058 115.957 17.6495 117.615 17.6495C118.621 17.6495 119.531 17.7611 120.341 17.9844C121.152 18.2077 121.846 18.5383 122.424 18.9762C123.002 19.414 123.45 19.9636 123.766 20.6253C124.083 21.2865 124.242 22.0462 124.242 22.9032C124.242 23.3317 124.2 23.7559 124.115 24.175C124.032 24.5942 123.878 24.9946 123.655 25.3764C123.431 25.7587 123.128 26.113 122.746 26.4386C122.364 26.7648 121.883 27.0392 121.306 27.2638C122.536 27.6181 123.449 28.2187 124.047 29.0664C124.643 29.9141 124.941 30.9152 124.941 32.071C124.941 33.0209 124.75 33.8598 124.368 34.5859C123.986 35.3131 123.454 35.9182 122.774 36.4028C122.093 36.8868 121.292 37.2505 120.369 37.4925C119.447 37.7351 118.445 37.8561 117.364 37.8561C115.798 37.8561 114.414 37.6553 113.211 37.2555C112.009 36.8544 110.802 36.207 109.59 35.3125L112.079 31.1478C112.788 31.7073 113.533 32.1545 114.316 32.4901C115.099 32.8251 116.002 32.9928 117.028 32.9928C117.718 32.9928 118.287 32.8344 118.734 32.5175C119.181 32.2007 119.405 31.6886 119.405 30.9807C119.405 30.738 119.367 30.496 119.293 30.2534C119.218 30.0107 119.088 29.7968 118.901 29.6109C118.715 29.4238 118.472 29.2754 118.175 29.1637C117.877 29.0521 117.494 28.9959 117.028 28.9959H114.26V25.4188H116.553C117.486 25.4188 118.165 25.2697 118.594 24.9709C119.023 24.6734 119.237 24.2543 119.237 23.7141C119.237 23.2475 119.092 22.8752 118.804 22.5957C118.515 22.3163 117.979 22.1766 117.196 22.1766C116.301 22.1766 115.495 22.335 114.777 22.6519C114.06 22.9687 113.346 23.4253 112.638 24.0216L109.898 20.6397ZM131.317 37.9684C130.59 37.9684 129.909 37.8474 129.276 37.6048C128.642 37.3621 128.097 37.0315 127.64 36.6124C127.184 36.1932 126.825 35.6949 126.563 35.1173C126.302 34.5397 126.172 33.9153 126.172 33.2448C126.172 32.4995 126.331 31.819 126.648 31.2046C126.965 30.5896 127.403 30.0581 127.962 29.6115C128.521 29.1643 129.188 28.8194 129.961 28.5768C130.734 28.3341 131.587 28.2131 132.52 28.2131C133.713 28.2131 134.701 28.4002 135.483 28.7726V28.326C135.483 27.6362 135.283 27.1235 134.882 26.7885C134.481 26.4523 133.834 26.2851 132.939 26.2851C132.1 26.2851 131.327 26.4205 130.618 26.6906C129.91 26.9607 129.164 27.3567 128.381 27.8782L126.843 24.5798C128.782 23.3317 130.991 22.7074 133.471 22.7074C135.819 22.7074 137.628 23.2295 138.895 24.2723C140.163 25.3165 140.796 26.8808 140.796 28.9679V31.8183C140.796 32.3211 140.872 32.671 141.02 32.8668C141.169 33.0627 141.429 33.1787 141.803 33.2161V37.6883C141.375 37.7819 140.969 37.8511 140.586 37.8979C140.205 37.9447 139.864 37.9678 139.566 37.9678C138.615 37.9678 137.893 37.7956 137.399 37.4507C136.905 37.1052 136.583 36.598 136.434 35.9269L136.322 35.3961C135.67 36.2344 134.915 36.8719 134.058 37.3104C133.2 37.7495 132.286 37.9684 131.317 37.9684ZM132.91 34.1673C133.227 34.1673 133.554 34.1162 133.889 34.0139C134.224 33.911 134.523 33.7756 134.784 33.6078C134.989 33.4588 135.157 33.296 135.287 33.1188C135.418 32.9423 135.483 32.7602 135.483 32.5743V31.4846C135.166 31.373 134.821 31.2794 134.449 31.2052C134.075 31.131 133.74 31.0936 133.442 31.0936C132.789 31.0936 132.248 31.252 131.819 31.5688C131.391 31.8851 131.176 32.2855 131.176 32.7702C131.176 33.18 131.34 33.5155 131.665 33.7763C131.992 34.0364 132.407 34.1673 132.91 34.1673ZM156.482 17.2858C156.482 17.957 156.361 18.567 156.118 19.1171C155.877 19.6667 155.536 20.1413 155.098 20.5418C154.66 20.9428 154.133 21.2541 153.518 21.4786C152.903 21.7019 152.223 21.8136 151.477 21.8136C150.731 21.8136 150.051 21.7019 149.436 21.4786C148.821 21.2547 148.294 20.9428 147.856 20.5418C147.418 20.1407 147.078 19.6667 146.835 19.1171C146.593 18.5676 146.472 17.957 146.472 17.2858H149.212C149.212 17.9008 149.398 18.4323 149.771 18.8789C150.144 19.3267 150.713 19.55 151.477 19.55C152.185 19.55 152.721 19.3361 153.084 18.9069C153.448 18.4784 153.667 17.9383 153.742 17.2865H156.482V17.2858ZM149.156 30.0581L154.917 22.9868H158.636V37.6883H153.323V30.869L147.59 37.689H143.843V22.9874H149.156V30.0581H149.156ZM170.575 28.9959L174.182 22.9868H179.719V37.6883H174.685V30.6732L171.693 35.6762H169.456L166.465 30.6732V37.689H161.431V22.9874H166.995L170.575 28.9959Z" fill="#C9150D"/>
<path fill-rule="evenodd" clip-rule="evenodd" d="M109.152 44.0761V43.448C109.152 41.8206 109.538 40.8944 110.307 40.6698C110.537 40.6012 110.995 40.5675 111.682 40.5675C111.964 40.5675 112.133 40.5476 112.188 40.5089C112.243 40.469 112.271 40.4209 112.271 40.3636C112.271 40.285 112.331 40.2201 112.452 40.1671C112.55 40.1253 112.648 40.1047 112.742 40.1047C113.019 40.1047 113.158 40.3218 113.158 40.7559C113.158 40.9343 113.077 41.0883 112.916 41.2193C112.786 41.3241 112.623 41.3952 112.425 41.4314C112.294 41.4576 112.148 41.4707 111.989 41.4707H111.152C110.873 41.4707 110.66 41.578 110.513 41.7925C110.412 41.9441 110.362 42.1406 110.362 42.3814H110.385C110.647 42.1768 110.982 42.0757 111.391 42.0757C112.004 42.0757 112.472 42.2741 112.797 42.672C113.09 43.0382 113.236 43.5353 113.236 44.1628C113.236 44.8327 113.058 45.3641 112.702 45.7564C112.347 46.1487 111.836 46.3452 111.171 46.3452C110.506 46.3452 109.999 46.1282 109.648 45.6934C109.318 45.2899 109.152 44.7503 109.152 44.0761ZM110.362 44.1459C110.362 44.8732 110.632 45.2375 111.171 45.2375C111.401 45.2375 111.594 45.157 111.748 44.9979C111.902 44.8389 111.98 44.5545 111.98 44.1459C111.98 43.4604 111.71 43.1174 111.17 43.1174C110.898 43.1174 110.692 43.2247 110.55 43.4398C110.425 43.6282 110.362 43.864 110.362 44.1459ZM115.136 43.6126C115.87 43.6126 116.323 43.6282 116.495 43.6594C117.066 43.7486 117.417 43.9844 117.547 44.3661C117.599 44.5227 117.626 44.7092 117.626 44.9237C117.626 45.4464 117.44 45.8076 117.068 46.0065C116.791 46.1531 116.364 46.2267 115.788 46.2267H114.594C114.113 46.2267 113.872 45.9523 113.872 45.4028V42.7026C113.872 42.1581 114.084 41.8861 114.508 41.8861C114.928 41.8861 115.136 42.1581 115.136 42.7026V43.6126ZM115.136 44.4366V45.4021H115.65C116.135 45.4021 116.377 45.2431 116.377 44.9231C116.377 44.7185 116.301 44.58 116.148 44.5064C116.047 44.4597 115.882 44.436 115.65 44.436H115.136V44.4366ZM119.463 42.8043V45.4021C119.463 45.6685 119.427 45.8649 119.355 45.9909C119.261 46.1475 119.089 46.2267 118.84 46.2267C118.589 46.2267 118.418 46.1475 118.324 45.9909C118.252 45.8656 118.216 45.6691 118.216 45.4021V42.8043C118.216 42.1924 118.423 41.8855 118.84 41.8855C119.255 41.8855 119.463 42.1924 119.463 42.8043ZM120.1 44.0835C120.1 43.4186 120.298 42.876 120.696 42.4543C121.094 42.0333 121.623 41.8225 122.282 41.8225C122.628 41.8225 122.929 41.8755 123.185 41.9803C123.531 42.1262 123.703 42.3464 123.703 42.639C123.703 42.7912 123.654 42.9196 123.554 43.0244C123.454 43.1292 123.329 43.181 123.177 43.181C123.077 43.181 122.948 43.1479 122.789 43.0831C122.629 43.0176 122.46 42.9845 122.282 42.9845C121.994 42.9845 121.771 43.0943 121.615 43.3145C121.472 43.5134 121.403 43.7617 121.403 44.0605C121.403 44.3742 121.476 44.6249 121.623 44.8139C121.79 45.0235 122.025 45.1283 122.329 45.1283C122.507 45.1283 122.672 45.0965 122.824 45.0341C122.976 44.9705 123.101 44.9399 123.201 44.9399C123.347 44.9399 123.467 44.9936 123.559 45.1009C123.65 45.2081 123.695 45.3373 123.695 45.4894C123.695 45.7458 123.517 45.9629 123.162 46.1406C122.905 46.266 122.586 46.3296 122.204 46.3296C121.565 46.3296 121.052 46.1126 120.664 45.6778C120.287 45.2587 120.1 44.7266 120.1 44.0835ZM125.141 42.9764H124.599C124.071 42.9764 123.806 42.7949 123.806 42.4313C123.806 42.0676 124.071 41.8861 124.599 41.8861H126.939C127.473 41.8861 127.74 42.0676 127.74 42.4313C127.74 42.7949 127.472 42.9764 126.934 42.9764H126.389V45.3628C126.389 45.9803 126.181 46.2891 125.766 46.2891C125.349 46.2891 125.141 45.9797 125.141 45.3628V42.9764ZM129.382 45.9909H129.35V47.0893C129.35 47.6975 129.149 48 128.745 48C128.317 48 128.102 47.6919 128.102 47.0737V42.8043C128.102 42.1924 128.317 41.8855 128.745 41.8855C128.997 41.8855 129.199 42.019 129.35 42.2853C129.607 41.9978 129.955 41.8543 130.395 41.8543C130.981 41.8543 131.457 42.0845 131.824 42.5454C132.159 42.9739 132.327 43.4872 132.327 44.0835C132.327 44.5283 132.224 44.9362 132.02 45.3073C131.811 45.7003 131.516 45.9903 131.134 46.1787C130.892 46.2991 130.641 46.3589 130.379 46.3589C129.997 46.3596 129.664 46.2367 129.382 45.9909ZM129.35 44.1615C129.35 44.4497 129.416 44.6854 129.548 44.8682C129.7 45.0778 129.916 45.1826 130.194 45.1826C130.473 45.1826 130.689 45.0672 130.841 44.837C130.973 44.6331 131.038 44.3867 131.038 44.0998C131.038 43.8166 130.97 43.5758 130.832 43.3775C130.681 43.1473 130.468 43.0319 130.194 43.0319C129.963 43.0319 129.763 43.1086 129.598 43.2627C129.433 43.418 129.35 43.7174 129.35 44.1615ZM132.727 44.0835C132.727 43.4392 132.927 42.8991 133.327 42.4618C133.728 42.0252 134.245 41.8063 134.878 41.8063C135.522 41.8063 136.04 42.0233 136.433 42.4581C136.826 42.8928 137.022 43.4336 137.022 44.0829C137.022 44.726 136.828 45.263 136.44 45.6915C136.038 46.1313 135.517 46.3515 134.878 46.3515C134.244 46.3515 133.723 46.1288 133.315 45.6841C132.923 45.2555 132.727 44.7216 132.727 44.0835ZM134.038 44.0679C134.038 44.3555 134.103 44.6062 134.234 44.8214C134.391 45.0728 134.606 45.1982 134.878 45.1982C135.15 45.1982 135.365 45.0728 135.522 44.8214C135.653 44.6069 135.718 44.3555 135.718 44.0679C135.718 43.7848 135.65 43.539 135.514 43.3294C135.356 43.0887 135.145 42.9683 134.878 42.9683C134.606 42.9683 134.391 43.0887 134.234 43.3294C134.103 43.534 134.038 43.7798 134.038 44.0679ZM138.805 44.4366C138.831 44.6823 138.933 44.8701 139.111 45.0023C139.289 45.1333 139.506 45.1982 139.763 45.1982C139.977 45.1982 140.236 45.1289 140.54 44.9905C140.843 44.852 141.033 44.7828 141.105 44.7828C141.44 44.7828 141.609 44.9474 141.609 45.2774C141.609 45.4027 141.56 45.5281 141.467 45.6541C141.299 45.8843 141.032 46.0602 140.666 46.1799C140.357 46.2841 140.034 46.3371 139.7 46.3371C139.071 46.3371 138.548 46.1213 138.129 45.6897C137.711 45.2574 137.501 44.7254 137.501 44.0923C137.501 43.4635 137.701 42.9278 138.101 42.483C138.503 42.0383 139.014 41.8156 139.637 41.8156C139.946 41.8156 140.226 41.8736 140.477 41.989C140.838 42.1562 141.134 42.4044 141.365 42.7344C141.595 43.0644 141.711 43.423 141.711 43.8097C141.711 44.0193 141.635 44.179 141.483 44.2881C141.352 44.3879 141.179 44.4378 140.965 44.4378H138.805V44.4366ZM138.789 43.6051H140.462C140.446 43.385 140.361 43.2041 140.206 43.0631C140.052 42.9221 139.865 42.851 139.645 42.851C139.419 42.851 139.232 42.9203 139.079 43.0587C138.928 43.1978 138.831 43.38 138.789 43.6051ZM146.234 45.9909H146.202V47.0893C146.202 47.6975 146.001 48 145.597 48C145.169 48 144.954 47.6919 144.954 47.0737V42.8043C144.954 42.1924 145.169 41.8855 145.597 41.8855C145.849 41.8855 146.05 42.019 146.202 42.2853C146.459 41.9978 146.807 41.8543 147.247 41.8543C147.833 41.8543 148.309 42.0845 148.676 42.5454C149.011 42.9739 149.179 43.4872 149.179 44.0835C149.179 44.5283 149.077 44.9362 148.873 45.3073C148.663 45.7003 148.368 45.9903 147.986 46.1787C147.745 46.2991 147.493 46.3589 147.232 46.3589C146.849 46.3596 146.516 46.2367 146.234 45.9909ZM146.202 44.1615C146.202 44.4497 146.268 44.6854 146.4 44.8682C146.552 45.0778 146.768 45.1826 147.046 45.1826C147.325 45.1826 147.541 45.0672 147.693 44.837C147.825 44.6331 147.891 44.3867 147.891 44.0998C147.891 43.8166 147.822 43.5758 147.685 43.3775C147.533 43.1473 147.32 43.0319 147.046 43.0319C146.815 43.0319 146.616 43.1086 146.45 43.2627C146.286 43.418 146.202 43.7174 146.202 44.1615ZM150.883 44.4366C150.909 44.6823 151.011 44.8701 151.189 45.0023C151.367 45.1333 151.584 45.1982 151.841 45.1982C152.055 45.1982 152.314 45.1289 152.618 44.9905C152.921 44.852 153.11 44.7828 153.183 44.7828C153.518 44.7828 153.686 44.9474 153.686 45.2774C153.686 45.4027 153.638 45.5281 153.545 45.6541C153.377 45.8843 153.11 46.0602 152.744 46.1799C152.435 46.2841 152.112 46.3371 151.778 46.3371C151.149 46.3371 150.626 46.1213 150.206 45.6897C149.788 45.2574 149.579 44.7254 149.579 44.0923C149.579 43.4635 149.779 42.9278 150.179 42.483C150.58 42.0383 151.092 41.8156 151.715 41.8156C152.023 41.8156 152.304 41.8736 152.555 41.989C152.916 42.1562 153.212 42.4044 153.442 42.7344C153.672 43.0644 153.788 43.423 153.788 43.8097C153.788 44.0193 153.711 44.179 153.56 44.2881C153.429 44.3879 153.256 44.4378 153.041 44.4378H150.883V44.4366ZM150.867 43.6051H152.54C152.524 43.385 152.439 43.2041 152.284 43.0631C152.13 42.9221 151.942 42.851 151.723 42.851C151.497 42.851 151.31 42.9203 151.157 43.0587C151.006 43.1978 150.909 43.38 150.867 43.6051ZM155.65 45.331H156.89V42.8043C156.89 42.1924 157.099 41.8855 157.515 41.8855C157.932 41.8855 158.14 42.1917 158.14 42.8043V45.331H159.38V42.8117C159.38 42.1942 159.589 41.8855 160.005 41.8855C160.422 41.8855 160.629 42.1942 160.629 42.8117V45.331C160.629 45.9273 160.37 46.2261 159.853 46.2261H155.178C154.922 46.2261 154.727 46.1369 154.591 45.9597C154.465 45.8019 154.402 45.5936 154.402 45.331V42.8117C154.402 42.1942 154.61 41.8855 155.027 41.8855C155.443 41.8855 155.652 42.1942 155.652 42.8117V45.331H155.65ZM162.756 44.4366C162.782 44.6823 162.885 44.8701 163.062 45.0023C163.24 45.1333 163.458 45.1982 163.714 45.1982C163.929 45.1982 164.188 45.1289 164.492 44.9905C164.795 44.852 164.983 44.7828 165.056 44.7828C165.391 44.7828 165.559 44.9474 165.559 45.2774C165.559 45.4027 165.512 45.5281 165.418 45.6541C165.25 45.8843 164.983 46.0602 164.617 46.1799C164.307 46.2841 163.985 46.3371 163.652 46.3371C163.023 46.3371 162.5 46.1213 162.08 45.6897C161.662 45.2574 161.452 44.7254 161.452 44.0923C161.452 43.4635 161.653 42.9278 162.053 42.483C162.454 42.0383 162.966 41.8156 163.589 41.8156C163.897 41.8156 164.178 41.8736 164.428 41.989C164.79 42.1562 165.086 42.4044 165.316 42.7344C165.547 43.0644 165.662 43.423 165.662 43.8097C165.662 44.0193 165.586 44.179 165.434 44.2881C165.303 44.3879 165.131 44.4378 164.916 44.4378H162.756V44.4366ZM162.74 43.6051H164.413C164.397 43.385 164.312 43.2041 164.157 43.0631C164.003 42.9221 163.816 42.851 163.596 42.851C163.371 42.851 163.183 42.9203 163.031 43.0587C162.879 43.1978 162.782 43.38 162.74 43.6051ZM167.499 44.4834V45.3585C167.499 45.9785 167.293 46.2891 166.878 46.2891C166.45 46.2891 166.235 45.9797 166.235 45.361V42.8049C166.235 42.1917 166.45 41.8855 166.878 41.8855C167.292 41.8855 167.499 42.1917 167.499 42.8043V43.5889H168.897V42.8043C168.897 42.1924 169.106 41.8855 169.521 41.8855C169.938 41.8855 170.146 42.1917 170.146 42.8049V45.361C170.146 45.9797 169.938 46.2891 169.521 46.2891C169.106 46.2891 168.897 45.9785 168.897 45.3585V44.4834H167.499ZM172.25 44.217L173.773 42.8043C173.773 42.5111 173.805 42.2984 173.867 42.168C173.962 41.9803 174.14 41.8861 174.402 41.8861C174.663 41.8861 174.842 41.9803 174.935 42.168C174.998 42.3003 175.029 42.5123 175.029 42.8055V45.3616C175.029 45.6554 174.998 45.8662 174.935 45.999C174.842 46.193 174.666 46.2897 174.405 46.2897C174.145 46.2897 173.968 46.193 173.875 45.9978C173.813 45.8662 173.781 45.6535 173.781 45.3591V44.1154L172.254 45.3591C172.254 45.6485 172.223 45.8612 172.16 45.9978C172.064 46.1924 171.889 46.2897 171.631 46.2897C171.2 46.2897 170.986 45.9803 170.986 45.3616V42.8055C170.986 42.5236 171.019 42.314 171.088 42.1761C171.187 41.9828 171.368 41.8861 171.63 41.8861C171.886 41.8861 172.062 41.9803 172.156 42.168C172.219 42.2984 172.25 42.5111 172.25 42.8043V44.217ZM176.813 44.4366C176.84 44.6823 176.941 44.8701 177.119 45.0023C177.298 45.1333 177.515 45.1982 177.771 45.1982C177.986 45.1982 178.245 45.1289 178.549 44.9905C178.852 44.852 179.041 44.7828 179.114 44.7828C179.449 44.7828 179.617 44.9474 179.617 45.2774C179.617 45.4027 179.569 45.5281 179.476 45.6541C179.308 45.8843 179.041 46.0602 178.674 46.1799C178.365 46.2841 178.043 46.3371 177.709 46.3371C177.08 46.3371 176.557 46.1213 176.138 45.6897C175.72 45.2574 175.51 44.7254 175.51 44.0923C175.51 43.4635 175.71 42.9278 176.11 42.483C176.511 42.0383 177.023 41.8156 177.646 41.8156C177.955 41.8156 178.235 41.8736 178.486 41.989C178.847 42.1562 179.143 42.4044 179.373 42.7344C179.604 43.0644 179.719 43.423 179.719 43.8097C179.719 44.0193 179.643 44.179 179.491 44.2881C179.36 44.3879 179.187 44.4378 178.973 44.4378H176.813V44.4366ZM176.798 43.6051H178.47C178.455 43.385 178.37 43.2041 178.215 43.0631C178.061 42.9221 177.874 42.851 177.654 42.851C177.429 42.851 177.241 42.9203 177.089 43.0587C176.936 43.1978 176.84 43.38 176.798 43.6051Z" fill="#005C32"/>
</svg>
