<svg width="92" height="42" viewBox="0 0 92 42" fill="none" xmlns="http://www.w3.org/2000/svg">
<path d="M9.1192 0H23.1192L22.1192 5H14.1192L11.1192 19H5.1192L9.1192 0Z" fill="#92CA00"/>
<path d="M38.7443 1.74478C37.4816 0.573104 35.8074 -0.0521578 34.0857 0.00401287L25.632 0L21.6026 18.9995H27.6633L28.7487 13.8434H32.1861C34.4389 13.9173 36.6308 13.1054 38.292 11.582C39.0516 10.8421 39.6458 9.9497 40.0356 8.96355C40.4254 7.97739 40.6019 6.91986 40.5534 5.86058C40.5591 5.08577 40.4008 4.31853 40.089 3.6092C39.7772 2.89987 39.3189 2.2645 38.7443 1.74478ZM33.7917 7.47987C33.4212 7.81808 32.9366 8.00385 32.4349 8H29.9247L30.5805 5.01492H32.9776C33.3431 5.00552 33.6986 5.13479 33.9726 5.37674C34.1243 5.49374 34.2463 5.64476 34.3288 5.81761C34.4113 5.99046 34.452 6.18029 34.4475 6.37177C34.4193 6.59136 34.3466 6.80288 34.2338 6.9934C34.1211 7.18393 33.9706 7.34946 33.7917 7.47987Z" fill="#92CA00"/>
<path d="M50.2956 0L48.3282 9.09495L57.193 0H62.6657L58.5951 19H52.4892L54.4114 9.90907L45.5692 19H40.1192L44.2124 0H50.2956Z" fill="#92CA00"/>
<path d="M80.5309 19H74.4025L75.914 12H70.3231C69.7452 14.7337 69.3569 16.2663 68.779 19H62.6656L66.7588 0.00401287H72.9484L71.5402 6.45566L77.1095 6.42633L78.4956 0H84.6015L80.5309 19Z" fill="#92CA00"/>
<path d="M12.2595 37.6571L8.41425 31.7761L6.22021 41.9999H0L4.07141 23H10.3142L13.6618 29.7857L20.4701 23H26.7356L22.6642 41.9999H16.4214L18.638 31.7535L12.2595 37.6571Z" fill="#DF005E"/>
<path d="M42.2332 23H35.4476L24.5 41.9999H31.1726L33.0787 38H38.5416L38.7952 41.9999H45.1285L42.2332 23ZM34.769 34.4506L37.8226 28.3154L38.2523 34.4506H34.769Z" fill="#DF005E"/>
<path d="M79.1274 23.0001L77.2274 32.0929L86.0714 23.0001H91.5L87.4286 42H81.3667L83.3119 32.9072L74.4453 42H68.9489L73.0203 23.0001H79.1274Z" fill="#DF005E"/>
<path d="M64.8653 41.9999H58.7368L60.2484 34.9999H54.6574C54.0796 37.7336 53.6912 39.2662 53.1134 41.9999H47L51.0932 23.0039H57.2827L55.8746 29.4556L61.4438 29.4262L62.83 22.9999H68.9359L64.8653 41.9999Z" fill="#DF005E"/>
</svg>
