<?xml version="1.0" encoding="utf-8"?>
<!-- Generator: Adobe Illustrator 21.0.0, SVG Export Plug-In . SVG Version: 6.00 Build 0)  -->
<svg version="1.1" id="Layer_1" xmlns="http://www.w3.org/2000/svg" xmlns:xlink="http://www.w3.org/1999/xlink" x="0px" y="0px"
	 viewBox="0 0 155 44" style="enable-background:new 0 0 155 44;" xml:space="preserve">
<style type="text/css">
	.st0{fill:#115AA1;}
	.st1{fill:#FFFFFF;}
</style>
<path class="st0" d="M142.4,44H12.6C5.7,44,0,38.3,0,31.4V12.6C0,5.7,5.7,0,12.6,0h129.8c7,0,12.6,5.7,12.6,12.6v18.8
	C155,38.3,149.3,44,142.4,44z"/>
<g>
	<g>
		<g>
			<path class="st1" d="M14.3,8.4h5.4c0.5,0,0.9-0.4,0.9-0.9V6.6c0-0.5-0.4-0.9-0.9-0.9h-5.4c-0.5,0-0.9,0.4-0.9,0.9v0.9
				C13.4,8,13.8,8.4,14.3,8.4z"/>
		</g>
		<g>
			<path class="st1" d="M29.9,5.7h-5.4c-0.5,0-0.9,0.4-0.9,0.9v0.9c0,0.5,0.4,0.9,0.9,0.9h5.4c0.5,0,0.9-0.4,0.9-0.9V6.6
				C30.8,6.1,30.4,5.7,29.9,5.7z"/>
		</g>
		<g>
			<path class="st1" d="M29.2,9C28.5,9,28,9.6,28,10.3v5.9c0,0.8-0.1,1.4-0.2,2C26.9,21.5,25,23,21.6,23c-3.7,0-6.4-2.2-6.4-5.3
				c0-0.7-0.6-1.3-1.3-1.3s-1.3,0.6-1.3,1.3c0,4.5,3.9,7.9,9,7.9c4.6,0,7.5-2.3,8.7-6.7c0.2-0.8,0.3-1.6,0.3-2.6v-5.9
				C30.5,9.6,30,9,29.2,9z"/>
		</g>
		<g>
			<path class="st1" d="M39.4,9.2c-4.2,0-7.7,3.6-7.7,8s3.4,8,7.7,8s7.7-3.6,7.7-8S43.6,9.2,39.4,9.2z M39.4,22.6
				c-2.8,0-5.1-2.4-5.1-5.4s2.3-5.4,5.1-5.4c2.8,0,5.1,2.4,5.1,5.4S42.2,22.6,39.4,22.6z"/>
		</g>
		<g>
			<path class="st1" d="M89.7,9.2c-4.2,0-7.7,3.6-7.7,8s3.4,8,7.7,8c4.2,0,7.7-3.6,7.7-8S93.9,9.2,89.7,9.2z M89.7,22.6
				c-2.8,0-5.1-2.4-5.1-5.4s2.3-5.4,5.1-5.4c2.8,0,5.1,2.4,5.1,5.4S92.5,22.6,89.7,22.6z"/>
		</g>
		<g>
			<path class="st1" d="M127.5,15.6c-0.7-3.7-3.5-6.4-7.2-6.4c-3.9,0-7,3-7.5,6.9c0,0.1-0.1,0.5-0.1,0.6c0,0.2,0,0.4,0,0.6
				c0,4.4,3.3,7.9,7.6,7.9c2.7,0,5.3-1.4,6.6-3.7c0.4-0.6,0.2-1.4-0.4-1.8c-0.6-0.4-1.4-0.2-1.8,0.4c-0.9,1.5-2.6,2.4-4.4,2.4
				c-2.6,0-4.7-2-5-4.8h10.9c1.2,0,1.4-0.1,1.4-0.8C127.7,16.8,127.6,15.8,127.5,15.6z M120.5,11.7c2.1,0,3.5,1.5,4.3,3.5h-9
				C116.5,13.2,118.3,11.7,120.5,11.7z"/>
		</g>
		<g>
			<path class="st1" d="M60,9.3c-0.6-0.3-1.4,0-1.7,0.6l-4.9,10.7L48.8,9.9c-0.3-0.7-1-1-1.7-0.7c-0.7,0.3-1,1-0.7,1.7l5.1,12
				c0.1,0.2,0.4,0.8,0.4,0.8l-2.2,4.9c-0.3,0.6,0,1.4,0.6,1.7c0.2,0.1,0.4,0.1,0.5,0.1c0.5,0,1-0.3,1.2-0.8L60.6,11
				C60.9,10.3,60.6,9.6,60,9.3z"/>
		</g>
		<g>
			<path class="st1" d="M141.4,9.3c-0.6-0.3-1.4,0-1.7,0.6l-4.9,10.7l-4.6-10.7c-0.3-0.7-1-1-1.7-0.7c-0.7,0.3-1,1-0.7,1.7l5.1,12
				c0.1,0.2,0.4,0.8,0.4,0.8l-2.3,5c-0.3,0.6,0,1.4,0.6,1.7c0.2,0.1,0.4,0.1,0.5,0.1c0.5,0,1-0.3,1.2-0.8L142,11
				C142.3,10.3,142,9.6,141.4,9.3z"/>
		</g>
		<g>
			<path class="st1" d="M104.8,9c-3.6,0-6.5,2.6-6.5,5.7v9.1c0,0.7,0.6,1.3,1.3,1.3s1.3-0.6,1.3-1.3v-9.1c0-1.7,1.7-3.1,3.9-3.1
				c2.1,0,3.9,1.4,3.9,3.1v9.1c0,0.7,0.6,1.3,1.3,1.3c0.7,0,1.3-0.6,1.3-1.3v-9.1C111.2,11.5,108.3,9,104.8,9z"/>
		</g>
		<g>
			<path class="st1" d="M75.1,9.2c-1.8,0-3.4,0.8-4.4,2.1c-1-1.3-2.6-2.1-4.4-2.1c-3.1,0-5.7,2.6-5.7,5.7v8.9c0,0.7,0.6,1.3,1.3,1.3
				s1.3-0.6,1.3-1.3v-8.9c0-1.7,1.4-3.1,3.1-3.1c1.7,0,3.1,1.4,3.1,3.1v8.8v0.1c0,0.7,0.6,1.3,1.3,1.3s1.3-0.6,1.3-1.3v-0.1v-8.8
				c0-1.7,1.4-3.1,3.1-3.1s3.1,1.4,3.1,3.1v8.9c0,0.7,0.6,1.3,1.3,1.3c0.7,0,1.3-0.6,1.3-1.3v-8.9C80.8,11.7,78.2,9.2,75.1,9.2z"/>
		</g>
	</g>
	<g>
		<path class="st1" d="M77.1,36.2c0.2,0,0.4-0.1,0.5-0.2c0.2-0.1,0.2-0.3,0.3-0.5h0.5c0,0.2-0.1,0.4-0.2,0.5s-0.3,0.3-0.5,0.4
			s-0.4,0.2-0.6,0.2c-0.5,0-0.8-0.2-1.1-0.5c-0.3-0.3-0.4-0.7-0.4-1.2v-0.1c0-0.3,0.1-0.6,0.2-0.9c0.1-0.3,0.3-0.4,0.5-0.6
			c0.2-0.1,0.5-0.2,0.8-0.2c0.4,0,0.7,0.1,0.9,0.3c0.2,0.2,0.4,0.5,0.4,0.9h-0.5c0-0.2-0.1-0.4-0.2-0.5c-0.1-0.1-0.3-0.2-0.5-0.2
			c-0.3,0-0.5,0.1-0.7,0.3c-0.2,0.2-0.2,0.5-0.2,0.9V35c0,0.4,0.1,0.7,0.2,0.9C76.6,36.1,76.8,36.2,77.1,36.2z"/>
		<path class="st1" d="M80.4,36.6c-0.4,0-0.8-0.1-1.1-0.4c-0.3-0.3-0.4-0.7-0.4-1.2v-0.1c0-0.3,0.1-0.6,0.2-0.9
			c0.1-0.3,0.3-0.5,0.5-0.6c0.2-0.1,0.5-0.2,0.7-0.2c0.4,0,0.8,0.1,1,0.4s0.4,0.7,0.4,1.2v0.2h-2.2c0,0.3,0.1,0.6,0.3,0.8
			c0.2,0.2,0.4,0.3,0.7,0.3c0.2,0,0.4,0,0.5-0.1s0.3-0.2,0.4-0.3l0.3,0.3C81.4,36.4,81,36.6,80.4,36.6z M80.3,33.7
			c-0.2,0-0.4,0.1-0.6,0.2c-0.2,0.2-0.3,0.4-0.3,0.7h1.7v0c0-0.3-0.1-0.5-0.2-0.7S80.6,33.7,80.3,33.7z"/>
		<path class="st1" d="M85.1,34.9c0,0.5-0.1,0.9-0.3,1.2c-0.2,0.3-0.5,0.5-0.9,0.5c-0.4,0-0.7-0.1-0.9-0.4v1.6h-0.6v-4.6h0.5l0,0.4
			c0.2-0.3,0.5-0.4,1-0.4c0.4,0,0.7,0.1,0.9,0.4C85,33.9,85.1,34.4,85.1,34.9L85.1,34.9z M84.6,34.9c0-0.4-0.1-0.7-0.2-0.9
			s-0.4-0.3-0.7-0.3c-0.3,0-0.6,0.2-0.8,0.5v1.6c0.2,0.3,0.4,0.5,0.8,0.5c0.3,0,0.5-0.1,0.6-0.3C84.5,35.6,84.6,35.3,84.6,34.9z"/>
		<path class="st1" d="M85.9,36.6v-3.3h1.3c0.4,0,0.8,0.1,1,0.2c0.2,0.2,0.4,0.4,0.4,0.7c0,0.2,0,0.3-0.1,0.4
			c-0.1,0.1-0.2,0.2-0.4,0.3c0.2,0,0.4,0.1,0.5,0.3s0.2,0.3,0.2,0.5c0,0.3-0.1,0.5-0.3,0.7c-0.2,0.2-0.5,0.2-0.9,0.2H85.9z
			 M86.5,34.7h0.7c0.5,0,0.8-0.2,0.8-0.5s-0.3-0.5-0.8-0.5h-0.8V34.7z M86.5,35.1v1h0.9c0.2,0,0.4,0,0.5-0.1
			c0.1-0.1,0.2-0.2,0.2-0.4c0-0.3-0.2-0.5-0.7-0.5H86.5z"/>
		<path class="st1" d="M91.6,33.3h0.6v3.3h-0.6v-2.4L90,36.6h-0.6v-3.3H90v2.4L91.6,33.3z"/>
		<path class="st1" d="M94.4,36.2c0.2,0,0.4-0.1,0.5-0.2c0.2-0.1,0.2-0.3,0.3-0.5h0.5c0,0.2-0.1,0.4-0.2,0.5s-0.3,0.3-0.5,0.4
			c-0.2,0.1-0.4,0.2-0.6,0.2c-0.5,0-0.8-0.2-1.1-0.5s-0.4-0.7-0.4-1.2v-0.1c0-0.3,0.1-0.6,0.2-0.9c0.1-0.3,0.3-0.4,0.5-0.6
			c0.2-0.1,0.5-0.2,0.8-0.2c0.4,0,0.7,0.1,0.9,0.3c0.2,0.2,0.4,0.5,0.4,0.9h-0.5c0-0.2-0.1-0.4-0.2-0.5c-0.1-0.1-0.3-0.2-0.5-0.2
			c-0.3,0-0.5,0.1-0.7,0.3c-0.2,0.2-0.2,0.5-0.2,0.9V35c0,0.4,0.1,0.7,0.2,0.9C93.9,36.1,94.1,36.2,94.4,36.2z"/>
		<path class="st1" d="M97.7,34.9c0-0.3,0.1-0.6,0.2-0.9c0.1-0.3,0.3-0.5,0.5-0.6c0.2-0.1,0.5-0.2,0.8-0.2c0.5,0,0.8,0.2,1.1,0.5
			c0.3,0.3,0.4,0.7,0.4,1.2v0c0,0.3-0.1,0.6-0.2,0.9c-0.1,0.3-0.3,0.5-0.5,0.6c-0.2,0.1-0.5,0.2-0.8,0.2c-0.4,0-0.8-0.2-1.1-0.5
			S97.7,35.4,97.7,34.9L97.7,34.9z M98.3,34.9c0,0.4,0.1,0.7,0.3,0.9s0.4,0.3,0.7,0.3c0.3,0,0.5-0.1,0.7-0.3
			c0.2-0.2,0.3-0.5,0.3-0.9c0-0.4-0.1-0.7-0.3-0.9c-0.2-0.2-0.4-0.3-0.7-0.3c-0.3,0-0.5,0.1-0.7,0.3C98.4,34.2,98.3,34.5,98.3,34.9z
			"/>
		<path class="st1" d="M104.1,36.6h-0.6v-1.4h-1.5v1.4h-0.6v-3.3h0.6v1.4h1.5v-1.4h0.6V36.6z"/>
		<path class="st1" d="M107.8,33.3v3.3h-0.6v-2.8h-1.1L106,35c0,0.6-0.1,1-0.3,1.2c-0.2,0.2-0.4,0.4-0.7,0.4h-0.2v-0.5l0.2,0
			c0.2,0,0.3-0.1,0.4-0.3c0.1-0.2,0.1-0.5,0.2-1.1l0.1-1.4H107.8z"/>
		<path class="st1" d="M110.7,36.6c0-0.1-0.1-0.2-0.1-0.3c-0.3,0.3-0.6,0.4-0.9,0.4c-0.3,0-0.6-0.1-0.8-0.3
			c-0.2-0.2-0.3-0.4-0.3-0.7c0-0.3,0.1-0.6,0.4-0.8s0.6-0.3,1.1-0.3h0.5v-0.3c0-0.2-0.1-0.4-0.2-0.5s-0.3-0.2-0.5-0.2
			c-0.2,0-0.4,0.1-0.5,0.2c-0.1,0.1-0.2,0.2-0.2,0.4h-0.6c0-0.2,0.1-0.3,0.2-0.5c0.1-0.2,0.3-0.3,0.5-0.4c0.2-0.1,0.4-0.1,0.7-0.1
			c0.4,0,0.7,0.1,0.9,0.3s0.3,0.5,0.3,0.8v1.5c0,0.3,0,0.5,0.1,0.7v0H110.7z M109.8,36.1c0.2,0,0.3,0,0.5-0.1s0.3-0.2,0.3-0.4V35
			h-0.4c-0.7,0-1,0.2-1,0.6c0,0.2,0.1,0.3,0.2,0.4C109.4,36.1,109.6,36.1,109.8,36.1z"/>
		<path class="st1" d="M114.2,33.3h0.6v3.3h-0.6v-2.4l-1.5,2.4h-0.6v-3.3h0.6v2.4L114.2,33.3z M114.4,32c0,0.2-0.1,0.4-0.3,0.6
			s-0.4,0.2-0.7,0.2c-0.3,0-0.5-0.1-0.7-0.2s-0.3-0.3-0.3-0.6h0.5c0,0.1,0,0.3,0.1,0.3c0.1,0.1,0.2,0.1,0.3,0.1c0.1,0,0.3,0,0.3-0.1
			c0.1-0.1,0.1-0.2,0.1-0.3H114.4z"/>
		<path class="st1" d="M118.4,36.6h-0.6v-1.4h-1.5v1.4h-0.6v-3.3h0.6v1.4h1.5v-1.4h0.6V36.6z"/>
		<path class="st1" d="M122.7,34.2c0-0.2-0.1-0.3-0.2-0.4c-0.1-0.1-0.3-0.1-0.5-0.1c-0.2,0-0.4,0.1-0.5,0.2
			c-0.1,0.1-0.2,0.2-0.2,0.4h-0.6c0-0.3,0.1-0.5,0.4-0.7c0.2-0.2,0.5-0.3,0.9-0.3c0.4,0,0.7,0.1,0.9,0.2s0.3,0.4,0.3,0.7
			c0,0.1,0,0.3-0.1,0.4s-0.2,0.2-0.4,0.3c0.4,0.1,0.6,0.4,0.6,0.8c0,0.3-0.1,0.5-0.4,0.7c-0.2,0.2-0.5,0.3-0.9,0.3
			c-0.4,0-0.7-0.1-0.9-0.3c-0.2-0.2-0.4-0.4-0.4-0.8h0.6c0,0.2,0.1,0.3,0.2,0.4s0.3,0.2,0.5,0.2c0.2,0,0.4,0,0.5-0.1
			c0.1-0.1,0.2-0.2,0.2-0.4c0-0.2-0.1-0.3-0.2-0.4c-0.1-0.1-0.3-0.1-0.5-0.1h-0.6v-0.5h0.6C122.5,34.6,122.7,34.5,122.7,34.2z"/>
		<path class="st1" d="M126.1,36.6c0-0.1-0.1-0.2-0.1-0.3c-0.3,0.3-0.6,0.4-0.9,0.4c-0.3,0-0.6-0.1-0.8-0.3
			c-0.2-0.2-0.3-0.4-0.3-0.7c0-0.3,0.1-0.6,0.4-0.8s0.6-0.3,1.1-0.3h0.5v-0.3c0-0.2-0.1-0.4-0.2-0.5s-0.3-0.2-0.5-0.2
			c-0.2,0-0.4,0.1-0.5,0.2c-0.1,0.1-0.2,0.2-0.2,0.4H124c0-0.2,0.1-0.3,0.2-0.5c0.1-0.2,0.3-0.3,0.5-0.4c0.2-0.1,0.4-0.1,0.7-0.1
			c0.4,0,0.7,0.1,0.9,0.3s0.3,0.5,0.3,0.8v1.5c0,0.3,0,0.5,0.1,0.7v0H126.1z M125.1,36.1c0.2,0,0.3,0,0.5-0.1s0.3-0.2,0.3-0.4V35
			h-0.4c-0.7,0-1,0.2-1,0.6c0,0.2,0.1,0.3,0.2,0.4C124.8,36.1,124.9,36.1,125.1,36.1z"/>
		<path class="st1" d="M129.6,33.3h0.6v3.3h-0.6v-2.4l-1.5,2.4h-0.6v-3.3h0.6v2.4L129.6,33.3z M129.7,32c0,0.2-0.1,0.4-0.3,0.6
			s-0.4,0.2-0.7,0.2c-0.3,0-0.5-0.1-0.7-0.2c-0.2-0.2-0.3-0.3-0.3-0.6h0.5c0,0.1,0,0.3,0.1,0.3c0.1,0.1,0.2,0.1,0.3,0.1
			c0.1,0,0.3,0,0.3-0.1c0.1-0.1,0.1-0.2,0.1-0.3H129.7z"/>
		<path class="st1" d="M132.9,35.8l1.1-2.6h0.7v3.3h-0.6v-2.4l-1.1,2.4h-0.4l-1.1-2.5v2.5h-0.6v-3.3h0.7L132.9,35.8z"/>
		<path class="st1" d="M135.5,34.9c0-0.3,0.1-0.6,0.2-0.9c0.1-0.3,0.3-0.5,0.5-0.6c0.2-0.1,0.5-0.2,0.8-0.2c0.5,0,0.8,0.2,1.1,0.5
			c0.3,0.3,0.4,0.7,0.4,1.2v0c0,0.3-0.1,0.6-0.2,0.9c-0.1,0.3-0.3,0.5-0.5,0.6c-0.2,0.1-0.5,0.2-0.8,0.2c-0.4,0-0.8-0.2-1.1-0.5
			S135.5,35.4,135.5,34.9L135.5,34.9z M136.1,34.9c0,0.4,0.1,0.7,0.3,0.9s0.4,0.3,0.7,0.3c0.3,0,0.5-0.1,0.7-0.3
			c0.2-0.2,0.3-0.5,0.3-0.9c0-0.4-0.1-0.7-0.3-0.9c-0.2-0.2-0.4-0.3-0.7-0.3c-0.3,0-0.5,0.1-0.7,0.3
			C136.2,34.2,136.1,34.5,136.1,34.9z"/>
		<path class="st1" d="M139.3,36.6v-3.3h1.3c0.4,0,0.8,0.1,1,0.2c0.2,0.2,0.4,0.4,0.4,0.7c0,0.2,0,0.3-0.1,0.4
			c-0.1,0.1-0.2,0.2-0.4,0.3c0.2,0,0.4,0.1,0.5,0.3s0.2,0.3,0.2,0.5c0,0.3-0.1,0.5-0.3,0.7c-0.2,0.2-0.5,0.2-0.9,0.2H139.3z
			 M139.9,34.7h0.7c0.5,0,0.8-0.2,0.8-0.5s-0.3-0.5-0.8-0.5h-0.8V34.7z M139.9,35.1v1h0.9c0.2,0,0.4,0,0.5-0.1
			c0.1-0.1,0.2-0.2,0.2-0.4c0-0.3-0.2-0.5-0.7-0.5H139.9z"/>
	</g>
</g>
</svg>
