<?xml version="1.0" encoding="utf-8"?>
<!-- Generator: Adobe Illustrator 21.0.0, SVG Export Plug-In . SVG Version: 6.00 Build 0)  -->
<svg version="1.1" id="Слой_1" xmlns="http://www.w3.org/2000/svg" xmlns:xlink="http://www.w3.org/1999/xlink" x="0px" y="0px"
	 viewBox="0 0 100 100" style="enable-background:new 0 0 100 100;" xml:space="preserve">
<style type="text/css">
	.st0{fill:#ADFF00;}
</style>
<g>
	<path class="st0" d="M74.2,53C61.4,53,51,63.4,51,76.3s10.4,23.3,23.3,23.3s23.3-10.4,23.3-23.3S87.1,53,74.2,53z M74.2,94
		c-9.8,0-17.8-8-17.8-17.8s8-17.8,17.8-17.8S92,66.5,92,76.3S84,94,74.2,94z"/>
	<path class="st0" d="M66.2,25.7c1.1-1.1,1.1-2.8,0.1-3.9c-1.1-1.1-2.8-1.1-3.9-0.1L45.7,37.9c-0.4-0.1-0.9-0.2-1.3-0.2
		c-0.7,0-1.3,0.1-1.9,0.4l-14-11.1c-1.2-0.9-2.9-0.7-3.9,0.5c-0.9,1.2-0.7,2.9,0.5,3.9l14,11.1c0,0.2-0.1,0.4-0.1,0.7
		c0,2.9,2.4,5.3,5.3,5.3c2.9,0,5.3-2.4,5.3-5.3c0-0.4-0.1-0.8-0.1-1.2L66.2,25.7z"/>
	<circle class="st0" cx="44.3" cy="12.5" r="2.9"/>
	<circle class="st0" cx="13.5" cy="43.7" r="2.9"/>
	<circle class="st0" cx="44.7" cy="74.5" r="2.9"/>
	<circle class="st0" cx="75.5" cy="43.3" r="2.9"/>
	<path class="st0" d="M44.3,79.4C24.3,79.4,8,63.1,8,43S24.3,6.7,44.3,6.7c20,0,36.3,16.3,36.3,36.3c0,2.7-0.3,5.4-0.9,8.1l5.4,1.2
		c0.7-3.1,1-6.2,1-9.3C86.1,20,67.4,1.2,44.3,1.2C21.2,1.2,2.5,20,2.5,43c0,23.1,18.8,41.8,41.8,41.8c1.6,0,3.3-0.1,5-0.3l-0.6-5.5
		C47.1,79.3,45.7,79.4,44.3,79.4z"/>
	<path class="st0" d="M77.3,64.8h-8.8c-0.2,0-0.3,0-0.4,0.1C68,65,68,65.1,68,65.3v10.3h-3.7c-0.2,0-0.3,0.1-0.4,0.2
		c-0.1,0.1-0.1,0.2-0.1,0.4v2.4c0,0.2,0,0.3,0.1,0.4c0.1,0.1,0.2,0.1,0.4,0.1H68V81h-3.7c-0.2,0-0.3,0-0.4,0.1
		c-0.1,0.1-0.1,0.2-0.1,0.4v2.1c0,0.2,0,0.3,0.1,0.4c0.1,0.1,0.2,0.1,0.4,0.1H68v3.1c0,0.2,0,0.3,0.1,0.4c0.1,0.1,0.2,0.1,0.4,0.1
		h2.7c0.1,0,0.3,0,0.4-0.1c0.1-0.1,0.2-0.2,0.2-0.4v-3.1H80c0.2,0,0.3,0,0.4-0.1c0.1-0.1,0.1-0.2,0.1-0.4v-2.1c0-0.2,0-0.3-0.1-0.4
		C80.3,81,80.2,81,80,81h-8.3v-1.9h5.6c2.2,0,4-0.7,5.3-2c1.4-1.3,2.1-3,2.1-5.2c0-2.1-0.7-3.8-2.1-5.2
		C81.3,65.4,79.5,64.8,77.3,64.8z M79.8,74.6c-0.7,0.7-1.6,1-2.8,1h-5.2v-7.3H77c1.2,0,2.1,0.3,2.8,1c0.7,0.7,1.1,1.6,1.1,2.6
		C80.8,73,80.5,73.9,79.8,74.6z"/>
</g>
</svg>
