<?xml version="1.0" encoding="utf-8"?>
<!-- Generator: Adobe Illustrator 21.0.0, SVG Export Plug-In . SVG Version: 6.00 Build 0)  -->
<svg version="1.1" id="Layer_1" xmlns="http://www.w3.org/2000/svg" xmlns:xlink="http://www.w3.org/1999/xlink" x="0px" y="0px"
	 viewBox="0 0 155 44" style="enable-background:new 0 0 155 44;" xml:space="preserve">
<style type="text/css">
	.st0{fill:#5D57DD;}
	.st1{fill:#FFFFFF;}
	.st2{fill:#ED1C24;}
</style>
<path class="st0" d="M142.4,44H12.6C5.7,44,0,38.3,0,31.4V12.6C0,5.7,5.7,0,12.6,0h129.8c7,0,12.6,5.7,12.6,12.6v18.8
	C155,38.3,149.3,44,142.4,44z"/>
<g>
	<path class="st1" d="M31.3,14.6c-0.5,0-0.9,0.2-1.2,0.4c-0.1,0.1-5.8,6.4-5.8,6.4s-5.5-6.2-5.6-6.3c-0.4-0.3-0.8-0.5-1.4-0.5
		c-1.1,0-2,0.9-2,1.9v11.8c0,1.1,0.9,1.9,2,1.9c1.1,0,2-0.9,2-1.9v-6.6c0,0,3.5,4,3.6,4c0.4,0.4,0.9,0.6,1.4,0.6
		c0.6,0,1.1-0.3,1.5-0.7c0.1-0.1,3.5-4,3.5-4v6.7c0,1.1,0.9,1.9,2,1.9s2-0.9,2-1.9V16.5C33.2,15.5,32.3,14.6,31.3,14.6z"/>
	<path class="st1" d="M41.1,26.3c-1.1,0-2-0.9-2-1.9s0.9-1.9,2-1.9c1.1,0,2,0.9,2,1.9S42.2,26.3,41.1,26.3z M47.1,20.2
		c-0.1-1-0.9-1.7-2-1.7c-0.6,0-1.1,0.2-1.4,0.6c-0.8-0.4-1.7-0.6-2.6-0.6c-3.3,0-6,2.6-6,5.9c0,3.2,2.7,5.9,6,5.9
		c0.9,0,1.8-0.2,2.6-0.6c0.4,0.4,0.9,0.6,1.5,0.6c1.1,0,2-0.9,2-1.9L47.1,20.2L47.1,20.2z"/>
	<path class="st2" d="M115.6,26.3c-1.1,0-2-0.9-2-1.9c0-1.1,0.9-1.9,2-1.9c1.1,0,2,0.9,2,1.9C117.5,25.4,116.7,26.3,115.6,26.3z
		 M119.6,14.6c-1.1,0-2,0.9-2,1.9v2.3c-0.6-0.2-1.3-0.4-2-0.4c-3.3,0-6,2.6-6,5.9c0,3.2,2.7,5.9,6,5.9c0.9,0,1.8-0.2,2.6-0.6
		c0,0,0.1,0.1,0.1,0.1c0,0,0,0,0,0c0,0,0.1,0.1,0.2,0.1c0,0,0,0,0,0c0,0,0.1,0.1,0.2,0.1c0,0,0,0,0,0c0,0,0.1,0.1,0.2,0.1
		c0,0,0,0,0,0c0,0,0.1,0,0.1,0.1c0,0,0,0,0,0c0,0,0.1,0,0.1,0c0,0,0,0,0.1,0c0,0,0.1,0,0.2,0c0,0,0,0,0.1,0c0.1,0,0.1,0,0.2,0
		c1.1,0,2-0.9,2-1.9v-8.2v-3.6C121.6,15.5,120.7,14.6,119.6,14.6z"/>
	<path class="st2" d="M126,18.4c-1,0-1.9,0.8-2,1.7h0v8.2c0,1.1,0.9,1.9,2,1.9c1.1,0,2-0.9,2-1.9v-8.2h0
		C127.9,19.2,127,18.4,126,18.4z"/>
	<ellipse class="st2" cx="126" cy="15.6" rx="2" ry="1.9"/>
	<path class="st1" d="M57.9,24.3l2.6-2.6c0.8-0.8,0.8-2,0-2.7s-2-0.8-2.8,0l-2.6,2.6L52.5,19c0,0,0,0,0,0c0,0,0,0,0,0l-0.2-0.1
		c0,0-0.1,0-0.1-0.1c-0.8-0.5-1.9-0.5-2.5,0.2c-0.7,0.7-0.8,1.8-0.1,2.6l2.7,2.7l-2.6,2.6c0,0-0.1,0.2-0.1,0.2
		c-0.6,0.8-0.6,1.9,0.1,2.6c0.7,0.7,1.9,0.8,2.6,0.1l2.8-2.7l2.6,2.6c0.8,0.8,2,0.8,2.8,0c0.8-0.8,0.8-2,0-2.7L57.9,24.3z"/>
	<path class="st2" d="M83,24.8c-0.5,0-1,0.2-1.3,0.5c0,0,0,0,0,0c0,0,0,0,0,0c-0.7,0.6-1.6,1-2.7,1c-2.2,0-4-1.8-4-3.9
		s1.8-3.9,4-3.9c1,0,1.9,0.4,2.6,0.9c0.1,0,0.1,0.1,0.2,0.1c0.3,0.3,0.8,0.4,1.2,0.4c1.1,0,2-0.9,2-1.9c0-0.5-0.2-1-0.6-1.4
		c0,0,0,0,0,0c0,0,0,0,0,0c-1.4-1.3-3.3-2.1-5.4-2.1c-4.4,0-7.9,3.5-7.9,7.8s3.6,7.8,7.9,7.8c2,0,3.8-0.7,5.2-1.9c0,0,0,0,0,0
		c0.4-0.4,0.7-0.9,0.7-1.5C84.9,25.7,84.1,24.8,83,24.8z"/>
	<path class="st2" d="M102,21.9c0.2-0.1,0.4-0.1,0.7-0.1c0.3,0,0.6,0.1,0.8,0.2c0,0,0,0,0.1,0c0.1,0,0.2,0.1,0.3,0.2
		c0,0,0.1,0.1,0.1,0.1c0,0,0.1,0.1,0.1,0.1c0,0,0,0,0,0c0,0,0,0,0,0c0,0,0,0.1,0.1,0.1c0,0,0,0,0,0c0,0,0,0,0,0c0,0.1,0,0.2,0,0.2
		c0,0.4-0.3,0.7-0.6,0.8c0,0-0.1,0-0.2,0c0,0,0,0,0,0c0,0,0,0,0,0c0,0-0.1,0-0.1,0h0h-2.7C100.7,22.8,101.3,22.1,102,21.9z
		 M107.5,28C107.5,27.9,107.5,27.9,107.5,28c0-0.1,0-0.2,0-0.2c0,0,0,0,0,0c-0.2-0.7-0.9-1.2-1.6-1.2c-0.2,0-0.5,0.1-0.7,0.1
		c0,0,0,0,0,0c0,0,0,0,0,0l-0.2,0.1c-0.5,0.2-1.1,0.3-2,0.3c-1.4-0.1-2.2-1-2.2-1.4h5.2c0.1,0,0.1,0,0.2,0c0.6,0,1.1-0.3,1.4-0.8
		c0.3-0.4,0.5-1,0.5-1.8c0-0.9-0.2-1.7-0.7-2.4c-0.9-1.4-2.4-2.1-4.5-2.1c-1.8,0-3.3,0.5-4.4,1.6c-1.2,1.1-1.8,2.5-1.8,4.3
		c0,1.4,0.5,2.7,1.4,3.9c0.5,0.6,1.1,1.1,2,1.4c0.8,0.4,1.8,0.5,2.9,0.5c1.7,0,2.9-0.2,3.7-0.6c0.3-0.1,0.5-0.3,0.7-0.5c0,0,0,0,0,0
		c0,0,0.1-0.1,0.1-0.2c0,0,0,0,0,0c0.1-0.2,0.2-0.5,0.2-0.8C107.6,28.1,107.5,28,107.5,28C107.5,28,107.5,28,107.5,28z"/>
	<path class="st2" d="M94.8,18.6c-0.2-0.1-0.5-0.1-0.7-0.1c0,0-0.1,0-0.1,0c0,0-0.1,0-0.1,0c-1.2,0-2.3,0.7-2.9,1.6
		c-0.1-0.9-1-1.7-1.9-1.7c-1,0-1.9,0.8-2,1.7c0,0.1,0,0.1,0,0.2v8c0,1.1,0.9,1.9,2,1.9s2-0.9,2-1.9v-4c0-0.2,0-0.4,0.1-0.6
		c0.3-0.8,1-1.4,1.9-1.4c0.1,0,0.3,0,0.4,0c0.1,0,0.2,0,0.3,0.1c0.1,0,0.3,0,0.4,0c1.1,0,2-0.9,2-2C96.1,19.6,95.6,18.9,94.8,18.6z"
		/>
	<path class="st2" d="M135.6,22.5v-0.2h2.3v0c1-0.1,1.8-0.9,1.8-1.9c0-1-0.8-1.8-1.8-1.9v0h-2.3v-1.9c0-1.1-0.9-1.9-2-1.9
		s-2,0.9-2,1.9v1.9h-0.1c-1.1,0-2,0.9-2,1.9c0,1.1,0.9,1.9,2,1.9h0.1v4v0.1c0,0,0,0,0,0c0,2.2,1.8,3.9,4,3.9c0.8,0,1.6-0.2,2.2-0.7
		c0.1,0,0.2-0.1,0.3-0.2c0.1-0.1,0.3-0.2,0.4-0.4c0.2-0.3,0.3-0.6,0.3-1c0-0.9-0.8-1.7-1.7-1.7c-0.3,0-0.5,0.1-0.7,0.1l0,0
		c-0.1,0-0.2,0.1-0.2,0.1c-0.3,0-0.5-0.2-0.5-0.5V26L135.6,22.5L135.6,22.5z"/>
	<path class="st1" d="M69,28.2c0,1.1-1.3,2-3,2c-1.6,0-3-0.9-3-2c0-1.1,1.3-2,3-2C67.7,26.3,69,27.2,69,28.2z"/>
	<ellipse class="st2" cx="66" cy="26.3" rx="3" ry="1.9"/>
</g>
</svg>
