<svg xmlns="http://www.w3.org/2000/svg" viewBox="0 0 300.38 45.23"><defs><style>.cls-1{fill:#fcb715;}.cls-2{fill:#231f20;}</style></defs><title>logo-sclled</title><g id="Слой_2" data-name="Слой 2"><g id="Layer_1" data-name="Layer 1"><polygon class="cls-1" points="164.39 35.06 160.07 35.03 163.78 45.23 159.95 45.23 156.17 35.08 152.5 35.08 152.5 21.84 152.5 21.84 164.39 35.06"/><path class="cls-2" d="M0,22V9.23c0-6.37,2.77-9,10-9s10.28,2.62,10.28,9V22c0,6.21-3.13,9-10.28,9S0,28.18,0,22Zm14.93-.27V9.5C14.93,6.76,14.22,5,10,5,6.13,5,5.39,6.76,5.39,9.5V21.69c0,2.85.74,4.49,4.65,4.49S14.93,24.54,14.93,21.69Z"/><path class="cls-2" d="M25.59,7.62h4.65L30.51,10a7,7,0,0,1,5.43-2.5c3.79,0,7.5,2,7.5,9V30.68H38.13V16.49c0-3-1.25-4.18-3.48-4.18-2.07,0-3.71,1-3.71,4V30.68H25.59Z"/><path class="cls-2" d="M66.11,23.61c0,4.84-2.89,7.15-8.95,7.15s-8.95-2.77-8.95-9V16.53c0-5.78,2.89-9,8.95-9s8.95,2.77,8.95,9V21.1H53.6v.59c0,3.71,1.45,4.42,3.63,4.42,2.54,0,3.6-.9,3.6-2.5ZM53.6,16.69h7.31c0-2.89-.55-4.49-3.59-4.49S53.6,13.92,53.6,16.69Z"/><path class="cls-2" d="M92.75,16.22c0-2.62-.94-3.91-3.59-3.91-3,0-3.83,1.64-3.83,4.49v5c0,2.85.74,4.49,3.56,4.49s3.83-1.21,3.87-3.95h5.08c0,6.21-2.89,8.71-8.95,8.71s-8.95-2.77-8.95-9.1V16.81c0-6.21,3-9.26,9.1-9.26s8.79,2.46,8.79,8.67Z"/><path class="cls-2" d="M102.32.55h5.35V22.16c0,2.54.47,3.36,2.7,3.36v5.16c-6.21,0-8-1.84-8-8.44Z"/><path class="cls-2" d="M121,3C121,6.88,115,6.92,115,3S121-1,121,3Zm-.39,27.74h-5.35V8.13h5.35Z"/><path class="cls-2" d="M138.2,16.22c0-2.62-.94-3.91-3.59-3.91-3,0-3.83,1.64-3.83,4.49v5c0,2.85.74,4.49,3.56,4.49s3.83-1.21,3.87-3.95h5.08c0,6.21-2.89,8.71-8.95,8.71s-8.95-2.77-8.95-9.1V16.81c0-6.21,3-9.26,9.1-9.26s8.79,2.46,8.79,8.67Z"/><path class="cls-2" d="M179.63,7.62h4.65l.35,2.34a6.52,6.52,0,0,1,5.43-2.46c2.27,0,4.57.74,5.67,2.93a7.77,7.77,0,0,1,6.56-3c4.77,0,7.62,2.77,7.62,9V30.68h-5.35V16.49c0-3-1.21-4.18-3.44-4.18-2,0-3.56.86-3.63,4.14V30.68h-5.35V16.49c0-3-1.21-4.18-3.44-4.18-2.07,0-3.71,1-3.71,4V30.68h-5.35Z"/><path class="cls-2" d="M214.75,22.08V16.53c0-6.06,2.89-9,8.95-9s8.95,2.77,8.95,9v5.55c0,6.21-2.89,9-8.95,9S214.75,28.29,214.75,22.08Zm12.5-.27v-5c0-2.85-.74-4.49-3.55-4.49s-3.56,1.64-3.56,4.49v5c0,2.85.74,4.49,3.56,4.49S227.25,24.66,227.25,21.81Z"/><path class="cls-2" d="M237.68,7.62h4.65l.27,2.34A7,7,0,0,1,248,7.47c3.79,0,7.5,2,7.5,9V30.68h-5.31V16.49c0-3-1.25-4.18-3.48-4.18-2.07,0-3.71,1-3.71,4V30.68h-5.35Z"/><path class="cls-2" d="M278.71,23.61c0,4.84-2.89,7.15-8.95,7.15s-8.95-2.77-8.95-9V16.53c0-5.78,2.89-9,8.95-9s8.95,2.77,8.95,9V21.1H266.2v.59c0,3.71,1.45,4.42,3.63,4.42,2.54,0,3.59-.9,3.59-2.5Zm-12.5-6.92h7.31c0-2.89-.55-4.49-3.59-4.49S266.2,13.92,266.2,16.69Z"/><path class="cls-2" d="M300.38,7.62,293.54,30.4h0l-1.25,4.45c-1.48,5.2-4.57,5.74-9,4l.82-3.95c1.37.31,2.81.9,3.36-1.13l.9-3.24-6.92-22.9h5.59l2.07,6.92a92.83,92.83,0,0,1,1.8,9.69c.43-3,1-6.53,1.8-9.69l2-6.92Z"/><path class="cls-2" d="M160.49,30.73l-8-8.89,0-1.16v10h-5.38V.43h5.38V15.82H154l5.73-8.24h6L158.33,18l8.2,12.75Z"/></g></g></svg>