<svg width="250" height="54" viewBox="0 0 250 54" fill="none" xmlns="http://www.w3.org/2000/svg">
<g clip-path="url(#clip0)">
<path d="M129.484 53.4917H124.172V32.8745H129.484V45.9226L139.251 32.8745H144.563V53.4917H139.251V40.4435L129.484 53.4917Z" fill="#33A93D"/>
<path d="M167.352 32.8745V53.4917H162.04V46.3745C160.498 47.1653 158.785 47.5607 156.843 47.5607C151.588 47.5607 149.303 44.7929 149.303 39.4268V32.8745H155.015V38.862C155.015 41.4038 156.1 42.6465 158.385 42.6465C159.87 42.6465 161.069 42.364 162.04 41.7992V32.8745H167.352Z" fill="#33A93D"/>
<path d="M187.8 53.4917V45.5837H178.661V53.4917H173.292V32.8745H178.661V40.6695H187.8V32.8745H193.112V53.4917H187.8Z" fill="#33A93D"/>
<path d="M219.157 53.4917V32.8745H224.469V53.4917H219.157ZM204.364 42.703V48.9164H206.477C209.161 48.9164 210.532 47.8996 210.532 45.8661C210.532 43.7762 209.161 42.7594 206.534 42.7594H204.364V42.703ZM199.052 53.4917V32.8745H204.364V38.523H206.934C213.502 38.523 216.13 41.5168 216.13 45.6967C216.13 50.159 213.16 53.5482 206.534 53.5482H199.052V53.4917Z" fill="#33A93D"/>
<path d="M234.464 41.2343H244.688C244.745 38.6924 242.86 36.7154 239.89 36.7154C236.92 36.7719 235.035 38.2405 234.464 41.2343ZM248.286 51.4016C246.23 53.0962 243.603 53.9435 240.29 53.9435C236.92 53.9435 234.236 52.9267 232.122 50.9497C230.066 48.9728 229.038 46.3744 229.038 43.0983C229.038 40.0481 230.066 37.4497 232.065 35.4163C234.064 33.3263 236.749 32.3096 240.119 32.3096C242.86 32.3096 245.202 33.2133 247.144 35.0209C249.029 36.8284 250 39.0878 250 41.9121C250 43.0418 249.886 44.002 249.657 44.7364H234.578C234.978 47.7866 237.491 49.5376 240.861 49.5376C243.203 49.5376 245.202 48.9163 246.744 47.6736L248.286 51.4016Z" fill="#33A93D"/>
<path d="M68.8255 53.4917V45.5837H59.6869V53.4917H54.3179V32.8745H59.6869V40.6695H68.8255V32.8745H74.1374V53.4917H68.8255Z" fill="#33A93D"/>
<path d="M89.5018 47.4478V45.3578C88.645 44.68 87.3884 44.3411 85.8463 44.3411C83.9614 44.3411 82.5335 45.2449 82.5335 46.8829C82.5335 48.4081 83.7901 49.3118 85.5036 49.3118C87.2742 49.3118 88.5879 48.6905 89.5018 47.4478ZM78.7638 34.3432C81.0485 32.9875 83.5045 32.3662 86.1319 32.3662C92.072 32.3662 94.4709 35.247 94.4709 40.952V53.5482H89.8445V51.1758C88.5879 52.9834 86.5317 53.8307 83.6758 53.8307C79.7919 53.8307 77.1074 51.4018 77.1074 47.5043C77.1074 43.1549 80.2488 40.7825 84.704 40.7825C86.5888 40.7825 88.1881 41.2344 89.4446 42.1382C89.5589 38.5231 88.5308 36.8286 85.5607 36.8286C84.0185 36.8286 82.1908 37.2804 80.0775 38.2407L78.7638 34.3432Z" fill="#33A93D"/>
<path d="M102.41 32.8745L102.067 39.3138C101.725 44.2846 100.468 47.3348 99.2116 48.2385C98.7547 48.5774 98.2977 48.7469 97.7837 48.8034V53.9435C103.61 53.8871 106.009 51.6276 107.208 40.3871L107.322 38.1841H112.863V53.5482H118.174V32.8745H102.41Z" fill="#33A93D"/>
<path d="M3.25682 37.3932H3.37105C4.68474 37.3932 5.82707 38.184 6.34112 39.4267C7.76904 42.8723 11.2532 45.3012 15.3084 45.1317C19.992 44.9058 23.8188 41.1213 24.0473 36.4895C24.2758 31.2928 20.1063 26.9999 14.8515 26.9999C10.9676 26.9999 7.71192 29.3723 6.34112 32.705C5.82707 33.9476 4.62762 34.7384 3.31393 34.7384H3.25682C1.02926 34.7384 -0.570004 32.592 0.115397 30.502C2.40007 23.6108 8.85426 18.5271 16.5079 18.1882L10.1679 7.17358C9.02561 5.19659 9.71101 2.71124 11.653 1.58153C13.6521 0.451823 16.1652 1.12965 17.3075 3.10663L24.7898 15.9288L21.7055 4.57525C21.1915 2.65475 22.3338 0.621279 24.2758 0.112911C26.2177 -0.395457 28.274 0.73425 28.788 2.65475L32.2721 15.5334V8.07734C32.2721 6.55224 33.5287 5.36605 35.0137 5.36605C36.5559 5.36605 37.7553 6.60873 37.7553 8.07734V34.7949C37.7553 34.8514 37.7553 34.9079 37.7553 34.9644C37.7553 45.4706 29.1307 54.0564 18.4499 54.0564C18.0501 54.0564 17.7074 54.0564 17.3075 54.0564C9.31119 54.0564 2.45718 48.9162 0.115397 41.7426C-0.512888 39.5962 1.02926 37.3932 3.25682 37.3932Z" fill="#F97C13"/>
<path d="M62.9995 22.5942C66.3123 22.5942 68.7112 20.2218 68.7112 16.6632C68.7112 13.2176 66.3123 10.7887 62.9995 10.7887C59.801 10.7887 57.345 13.1611 57.345 16.6632C57.345 20.1088 59.7439 22.5942 62.9995 22.5942ZM51.6333 16.6632C51.6333 13.5 52.6614 10.9017 54.7176 8.92472C56.8309 6.83476 59.5725 5.87451 62.9995 5.87451C66.3694 5.87451 69.111 6.89125 71.2243 8.92472C73.3377 10.9582 74.3658 13.5 74.3658 16.6632C74.3658 19.8264 73.2806 22.4247 71.2243 24.4582C69.111 26.4917 66.4265 27.5084 62.9995 27.5084C59.6296 27.5084 56.8309 26.4917 54.7176 24.4582C52.6614 22.3682 51.6333 19.8264 51.6333 16.6632Z" fill="#33A93D"/>
<path d="M76.5366 11.5793V6.32617H95.5565V11.5793H88.7025V26.9998H83.3906V11.5793H76.5366Z" fill="#33A93D"/>
<path d="M129.484 26.9998H124.172V6.32617H129.484V19.4308L139.251 6.32617H144.563V26.9998H139.251V13.8952L129.484 26.9998Z" fill="#33A93D"/>
<path d="M167.352 6.32617V26.9433H162.04V19.8827C160.498 20.6735 158.785 21.0689 156.843 21.0689C151.588 21.0689 149.303 18.3011 149.303 12.935V6.32617H155.015V12.3136C155.015 14.8555 156.157 16.0981 158.385 16.0981C159.87 16.0981 161.069 15.8157 162.04 15.2509V6.32617H167.352Z" fill="#33A93D"/>
<path d="M187.8 26.9998V19.0919H178.661V26.9998H173.292V6.32617H178.661V14.1212H187.8V6.32617H193.112V26.9998H187.8Z" fill="#33A93D"/>
<path d="M219.157 26.9998V6.32617H224.469V26.9433H219.157V26.9998ZM204.364 16.2111V22.4245H206.477C209.161 22.4245 210.532 21.4078 210.532 19.3743C210.532 17.2843 209.161 16.2676 206.534 16.2676H204.364V16.2111ZM199.052 26.9998V6.32617H204.364V11.9747H206.934C213.502 11.9747 216.13 14.9684 216.13 19.1483C216.13 23.6107 213.16 26.9998 206.534 26.9998H199.052Z" fill="#33A93D"/>
<path d="M234.464 14.7426H244.688C244.745 12.2007 242.86 10.2237 239.89 10.2237C236.92 10.2237 235.035 11.7488 234.464 14.7426ZM248.286 24.9099C246.23 26.6045 243.603 27.4518 240.29 27.4518C236.92 27.4518 234.236 26.435 232.122 24.458C230.066 22.4811 229.038 19.8827 229.038 16.6066C229.038 13.5564 230.066 10.958 232.065 8.92457C234.064 6.83461 236.749 5.81787 240.062 5.81787C242.803 5.81787 245.145 6.72164 247.087 8.52917C248.972 10.3367 249.943 12.5961 249.943 15.4204C249.943 16.5501 249.829 17.5103 249.6 18.2446H234.521C234.921 21.2949 237.434 23.0459 240.804 23.0459C243.146 23.0459 245.145 22.4246 246.687 21.1819L248.286 24.9099Z" fill="#33A93D"/>
<path d="M102.011 6.32617L101.668 12.7655C101.325 17.7362 100.069 20.7864 98.8122 21.6902C98.3553 22.0291 97.8983 22.1986 97.3843 22.255V27.3952C103.21 27.3387 105.609 25.0793 106.809 13.8387L106.923 11.6358H112.463V26.9998H117.775V6.32617H102.011Z" fill="#33A93D"/>
</g>
<defs>
<clipPath id="clip0">
<rect width="250" height="54" fill="white"/>
</clipPath>
</defs>
</svg>
