<?xml version="1.0" encoding="utf-8"?>
<!-- Generator: Adobe Illustrator 21.0.0, SVG Export Plug-In . SVG Version: 6.00 Build 0)  -->
<svg version="1.1" id="Layer_1" xmlns="http://www.w3.org/2000/svg" xmlns:xlink="http://www.w3.org/1999/xlink" x="0px" y="0px"
	 viewBox="0 0 155 44" style="enable-background:new 0 0 155 44;" xml:space="preserve">
<style type="text/css">
	.st0{fill:#FFFFFF;}
	.st1{fill:#273659;}
</style>
<ellipse class="st0" cx="77.5" cy="22" rx="77.5" ry="22"/>
<g>
	<path class="st1" d="M24.3,12.3c3.3-0.4,6.6-0.9,9.8-0.6c5.4,0.3,7.9,3.3,8,8.8c0,0.4,0,0.7,0,1.1c-0.3,7.3-4.9,10.6-11.9,8.6
		C29.9,30,29.7,30,29.4,30l-0.1,5.5c-1.5,0-3.4,0-5,0C24.3,27.8,24.3,20,24.3,12.3z M29.3,25.3c0,0,4.5,2.1,6.8,0.3
		c1.8-1.5,1.9-6.1,0.7-8.3c-1.4-2.8-7.6-1.6-7.6-1.6L29.3,25.3z"/>
	<path class="st1" d="M88,12.2c3.3-0.4,6.6-0.9,9.8-0.6c5.4,0.3,7.9,3.3,8,8.8c0,0.4,0,0.7,0,1.1c-0.3,7.3-4.9,10.6-11.9,8.6
		c-0.2-0.1-0.4-0.1-0.8-0.1L93,35.4c-1.5,0-3.4,0-5,0C88,27.7,88,20,88,12.2z M93,25.3c0,0,4.5,2.1,6.8,0.3c1.8-1.5,1.9-6.1,0.7-8.3
		c-1.4-2.8-7.6-1.6-7.6-1.6L93,25.3z"/>
	<path class="st1" d="M69.7,35.5l-0.2-5.5c0,0-6.2-16-7.3-18.6c1.6,0,5-0.1,5-0.1s4.4,12.9,4.7,13.8c0.3-0.7,4.6-13.8,4.6-13.8
		l5,0.1l-6.8,18.6l0,5.4L69.7,35.5z"/>
	<path class="st1" d="M56.3,19.2c0.3-2.6-0.4-3.9-2.7-4c-2.4,0-4.9,0.3-7.6,0.5l-0.1-3.4c0,0,7.5-1.3,10.8-0.4
		c3,0.8,4.4,2.6,4.5,5.7c0,4.6,0,9.2-0.2,14.1l-4.1-2.6c0,0-4.4,1.7-7.5,1.3c-3.1-0.3-4.7-2.2-4.9-5.3c-0.2-3.1,1.2-5,4.3-5.7
		c1.2-0.3,2.6-0.4,3.8-0.4C53.7,19,55,19.2,56.3,19.2z M52.9,22.2c-1.9,0-3.9,0.4-3.9,2.6c0,1.4,1.1,2.4,2.7,2.4
		c1.5,0.1,4.8-1.2,4.8-1.2l0-3.4c0,0-0.7-0.3-1.4-0.3C54.4,22.3,53.7,22.2,52.9,22.2z"/>
	<path class="st1" d="M111.9,26.6c2.2,0.2,4.2,0.5,6.2,0.7c0.6,0.1,1.2,0,1.7-0.1c1.1-0.3,1.9-1,1.7-2.3c-0.2-1.2-1-1.6-2.1-1.7
		c-1.3,0-2.3-0.1-3.6-0.2c-2.9-0.3-5-1.3-5.4-4.1c-0.5-3.4,0.7-6,3.6-6.9c3.3-1,6.4-0.6,9.9,0.2c0.4,0.1,0.8,0.2,0.8,0.2
		s0.1,2.6,0.1,3.6c-1.7-0.3-3.2-0.6-4.7-0.8c-1.2-0.1-2.5-0.1-3.6,0.2c-0.7,0.3-1.7,0.6-1.7,2c0,1.2,0.9,1.7,2,1.8
		c1.2,0.1,2.5,0,3.7,0c3.6,0.1,5.6,1.7,5.9,4.8c0.3,3.7-1.3,6.1-5,6.6c-2.6,0.3-9.3-0.6-9.3-0.6S111.9,27.4,111.9,26.6z"/>
</g>
<rect x="106" y="27.1" class="st1" width="3.4" height="3.4"/>
<rect x="127.4" y="27.1" class="st1" width="3.4" height="3.4"/>
</svg>
