<?xml version="1.0" encoding="utf-8"?>
<!-- Generator: Adobe Illustrator 21.0.0, SVG Export Plug-In . SVG Version: 6.00 Build 0)  -->
<svg version="1.1" id="Слой_1" xmlns="http://www.w3.org/2000/svg" xmlns:xlink="http://www.w3.org/1999/xlink" x="0px" y="0px"
	 viewBox="0 0 176.7 46" style="enable-background:new 0 0 176.7 46;" xml:space="preserve">
<style type="text/css">
	.st0{fill:#009186;}
	.st1{fill:#EFC14D;}
	.st2{fill:#FFFFFF;}
	.st3{fill:none;}
</style>
<path class="st0" d="M166.7,46H10C4.5,46,0,41.5,0,36V10C0,4.5,4.5,0,10,0h156.7c5.5,0,10,4.5,10,10v26
	C176.7,41.5,172.2,46,166.7,46z"/>
<g>
	<g>
		<path class="st1" d="M39.3,21l-5.7-5.3v-3.9c0-0.1-0.1-0.2-0.2-0.2h-1.9c-0.1,0-0.2,0.1-0.2,0.2v1.7l-6.9-6.4
			C24.3,7,24.1,7,24,7.1l-15,14c-0.2,0.2-0.2,0.4,0,0.6l2.1,2.3c0.2,0.2,0.4,0.2,0.6,0l2.2-2.1V27h20.5v-5.1l2.2,2
			c0.2,0.2,0.5,0.2,0.7,0l2-2.2C39.5,21.5,39.5,21.2,39.3,21z M23.8,12.7v5l-2.6-2.6L23.8,12.7z M20.7,15.6l3,3h-6.2L20.7,15.6z
			 M20.8,26.1c0,0.1-0.1,0.2-0.2,0.2l-3,0.4c0,0-0.1,0-0.2-0.1c-0.1-0.1-0.1-0.1-0.1-0.2l0-5.7c0-0.1,0-0.1,0.1-0.2
			c0.1-0.1,0.1-0.1,0.2-0.1l3,0.4c0.1,0,0.2,0.1,0.2,0.2L20.8,26.1z M22.1,26.5c-0.4-0.1-0.8-0.5-0.8-0.9l0-4.1
			c0-0.4,0.3-0.9,0.8-0.9l1.7-0.1l0,6L22.1,26.5z M30.9,18.6h-6.2l3-3L30.9,18.6z M24.6,12.7l2.6,2.4l-2.6,2.6V12.7z M27,25.7
			c0,0.4-0.3,0.8-0.8,0.8l-1.7,0.1l0-6l1.7,0.1c0.4,0,0.8,0.4,0.8,0.8V25.7z M31,26.4c0,0.1,0,0.1-0.1,0.2c0,0-0.1,0.1-0.2,0.1
			l-3-0.4c-0.1,0-0.2-0.1-0.2-0.2V21c0-0.1,0.1-0.2,0.2-0.2l3-0.4c0.1,0,0.1,0,0.2,0.1c0.1,0.1,0.1,0.1,0.1,0.2V26.4z"/>
		<polygon class="st1" points="28.2,25.8 30.4,26.1 30.4,20.9 28.1,21.2 		"/>
		<polygon class="st1" points="18,26.1 20.3,25.8 20.3,21.2 18,20.9 		"/>
		<rect x="21.8" y="29.3" class="st1" width="5.2" height="6.2"/>
		<path class="st1" d="M33.4,36.2c0.6,0,1.1-0.5,1.1-1.1v-7.3H14v7.3c0,0.6,0.5,1.1,1.1,1.1H21v-7.3c0-0.2,0.2-0.4,0.4-0.4h6
			c0.2,0,0.4,0.2,0.4,0.4v7.3H33.4z"/>
		<path class="st1" d="M27.2,36h-5.6c-0.1,0-0.1,0.1-0.1,0.1v0.6c0,0.1,0.1,0.1,0.1,0.1h5.6c0.1,0,0.1-0.1,0.1-0.1v-0.6
			C27.3,36.1,27.2,36,27.2,36z"/>
		<path class="st1" d="M27.2,37.5h-5.6c-0.1,0-0.1,0.1-0.1,0.1v0.6c0,0.1,0.1,0.1,0.1,0.1h5.6c0.1,0,0.1-0.1,0.1-0.1v-0.6
			C27.3,37.5,27.2,37.5,27.2,37.5z"/>
		<path class="st1" d="M37,37.4h-8.1c-0.1,0-0.1,0.1-0.1,0.1v0.8c0,0.1,0.1,0.1,0.1,0.1H37c0.1,0,0.1-0.1,0.1-0.1L37,37.4
			C37.1,37.4,37.1,37.4,37,37.4z"/>
		<path class="st1" d="M19.8,37.4h-8.1c-0.1,0-0.1,0.1-0.1,0.1v0.8c0,0.1,0.1,0.1,0.1,0.1h8.1c0.1,0,0.1-0.1,0.1-0.1v-0.8
			C20,37.4,19.9,37.4,19.8,37.4z"/>
		<path class="st1" d="M27.2,38.9h-5.6c-0.1,0-0.1,0.1-0.1,0.1v0.6c0,0.1,0.1,0.1,0.1,0.1h5.6c0.1,0,0.1-0.1,0.1-0.1V39
			C27.3,39,27.2,38.9,27.2,38.9z"/>
		<path class="st1" d="M32.9,11c-0.2-0.1-0.2-0.3-0.1-0.5c0-0.2,0.1-0.3,0.1-0.5c0.1-0.3,0.4-0.6,0.5-1s0.1-0.9-0.1-1.3
			c-0.2-0.3-0.5-0.6-0.3-1c-0.2,0.1-0.2,0.4-0.2,0.6s0.1,0.4,0.2,0.6c0.1,0.3,0.1,0.7,0,1s-0.4,0.6-0.4,1.1c0,0.2-0.1,0.4,0,0.6
			C32.5,10.7,32.6,11,32.9,11z"/>
		<path class="st1" d="M31.8,10.3c-0.2-0.1-0.2-0.3-0.1-0.5c0-0.2,0.1-0.3,0.1-0.5c0.1-0.3,0.4-0.6,0.5-1c0.1-0.4,0.1-0.9-0.1-1.3
			c-0.2-0.3-0.5-0.6-0.3-1c-0.2,0.1-0.2,0.4-0.2,0.6s0.1,0.4,0.2,0.6c0.1,0.3,0.1,0.7,0,1c-0.1,0.3-0.4,0.6-0.4,1.1
			c0,0.2-0.1,0.4,0,0.6C31.4,10,31.5,10.3,31.8,10.3z"/>
	</g>
	<g>
		<path class="st2" d="M113.1,21.5v1.7c0,0.2,0.2,0.3,0.3,0.3l2.8,0.1c1,0.1,1.8,0.8,1.8,1.6c0,0.9-0.9,1.6-2,1.6h-4
			c-0.2,0-0.3,0.2-0.3,0.4V29c0,0.2,0.2,0.3,0.3,0.3h4.1c2.5,0,4.5-1.9,4.5-4.1c0-1.3-0.6-2.4-1.6-3.1c0.4-0.6,0.8-1.3,0.8-2.4
			c0-2.2-1.7-4.2-3.7-4.2h-3.6c-0.2,0-0.3,0.2-0.3,0.3v1.8c0,0.2,0.2,0.3,0.3,0.3h3.4c1.2,0,1.3,0.8,1.4,1.5c0,0.5-0.3,1.5-1.4,1.6
			h-2.4C113.2,21.1,113.1,21.3,113.1,21.5"/>
		<g>
			<path class="st2" d="M47.5,18l3.2,0v11c0,0.2,0.1,0.4,0.3,0.4h2.1c0.3,0,0.3-0.1,0.3-0.4V18h3c0.2,0,0.3-0.1,0.3-0.3v-1.9
				c0-0.2-0.1-0.3-0.3-0.3h-8.9c-0.3,0-0.4,0.1-0.4,0.3v1.8C47.1,17.8,47.3,18,47.5,18z"/>
			<path class="st2" d="M67.2,27.1h-4.8v-3.5H66c0.2,0,0.3-0.2,0.3-0.3v-1.8c0-0.2-0.1-0.4-0.3-0.4h-3.5V18h4.8
				c0.2,0,0.3-0.2,0.3-0.3v-1.8c0-0.2-0.1-0.3-0.3-0.3h-7c-0.2,0-0.3,0.2-0.3,0.3V29c0,0.2,0.2,0.3,0.4,0.3h6.9
				c0.2,0,0.3-0.2,0.3-0.3v-1.6C67.6,27.2,67.4,27.1,67.2,27.1z"/>
			<path class="st2" d="M89.5,27.1l-4.7,0v-3.5h3.7c0.2,0,0.3-0.2,0.3-0.3v-1.8c0-0.2-0.2-0.4-0.3-0.4h-3.7V18h4.8
				c0.2,0,0.3-0.2,0.3-0.3v-1.8c0-0.2,0-0.3-0.4-0.3h-6.9c-0.2,0-0.3,0.2-0.3,0.3V29c0,0.2,0.2,0.3,0.3,0.3h6.9
				c0.2,0,0.3-0.2,0.3-0.3v-1.5C89.8,27.2,89.7,27.1,89.5,27.1z"/>
			<path class="st2" d="M73.4,24.7l2.2-0.1c2.4,0,4.4-1.9,4.3-4.2c0-2.7-1.6-4.9-5-4.9h-3.7c-0.2,0-0.3,0.2-0.3,0.3v8.3v4.8
				c0,0.2,0.1,0.3,0.3,0.3H73c0.2,0,0.3-0.2,0.3-0.3L73.4,24.7z M76.9,20.1c0,0.8-0.7,2-2,2h-1.5V18h1.5
				C76.3,18,76.9,19.2,76.9,20.1z"/>
			<path class="st2" d="M106.8,15.5h-2.7c-0.2,0-0.3,0.1-0.3,0.2l-2.9,9.3L98,15.8c0-0.1-0.2-0.2-0.3-0.2H95c-0.2,0-0.3,0.1-0.3,0.3
				L93.4,29c0,0.2,0.1,0.4,0.3,0.4h1.8c0.2,0,0.3-0.1,0.3-0.3l0.8-8.9l2.8,9c0,0.1,0.2,0.2,0.3,0.2h2c0.2,0,0.3-0.1,0.3-0.2l2.8-9
				l0.8,8.9c0,0.2,0.2,0.3,0.3,0.3h1.8c0.2,0,0.4-0.2,0.3-0.4l-1-13.2C107,15.8,107,15.5,106.8,15.5z"/>
			<path class="st2" d="M166.2,15.6c0-0.1-0.1-0.1-0.2-0.1h-2.4c-0.2,0-0.3,0.1-0.3,0.2l-2.9,9.3l-2.9-9.3c0-0.1-0.2-0.2-0.3-0.2
				h-2.7c-0.2,0-0.3,0.1-0.3,0.3L152.8,29c0,0.2,0.1,0.4,0.3,0.4h1.8c0.2,0,0.3-0.1,0.3-0.3l0.8-8.9l2.8,9c0.1,0.2,0.2,0.2,0.3,0.2
				h2c0.2,0,0.3-0.1,0.3-0.3l2.8-8.9l0.8,8.9c0,0.3,0.2,0.3,0.3,0.3h1.8c0.3,0,0.3-0.1,0.3-0.4L166.2,15.6z"/>
			<path class="st2" d="M130.2,15.6c0-0.1-0.1-0.1-0.2-0.1H128c-0.2,0-0.2,0.1-0.3,0.3l-3.8,13.1c-0.1,0.2,0.1,0.4,0.3,0.4h1.9
				c0.1,0,0.3-0.1,0.3-0.2l0.9-2.8h3.4l0.9,2.8c0,0.1,0.2,0.2,0.3,0.2h1.9c0.2,0,0.4-0.2,0.3-0.4L130.2,15.6z M128.1,23.9l0.9-3.7
				l1,3.7H128.1z"/>
			<path class="st2" d="M148,15.5h-1.7c-0.1,0-0.2,0-0.3,0.2l-5.2,9.3v-9.1c0-0.2-0.1-0.3-0.3-0.3h-1.9c-0.2,0-0.3,0.1-0.3,0.3v13.2
				c0,0.2,0.2,0.3,0.4,0.3h2.3c0.1,0,0.2-0.1,0.3-0.2l4.5-8.3v8.2c0,0.2,0.2,0.3,0.4,0.3h1.8c0.2,0,0.4-0.1,0.4-0.3V15.8
				C148.4,15.6,148.2,15.5,148,15.5z"/>
			<path class="st2" d="M146.4,11.3l-5.6-0.1c-0.2,0-0.3,0.1-0.3,0.3v1.9c0,0.2,0.1,0.3,0.3,0.3l5.6,0.1c0.2,0,0.3-0.1,0.3-0.3v-1.9
				C146.7,11.5,146.6,11.3,146.4,11.3z"/>
		</g>
	</g>
</g>
<line class="st3" x1="9" y1="21.1" x2="24.2" y2="6.9"/>
</svg>
