<?xml version="1.0" encoding="utf-8"?>
<!-- Generator: Adobe Illustrator 21.0.0, SVG Export Plug-In . SVG Version: 6.00 Build 0)  -->
<svg version="1.1" id="Слой_1" xmlns="http://www.w3.org/2000/svg" xmlns:xlink="http://www.w3.org/1999/xlink" x="0px" y="0px"
	 viewBox="0 0 378.4 58.6" style="enable-background:new 0 0 378.4 58.6;" xml:space="preserve">
<style type="text/css">
	.st0{fill:#006B2D;}
	.st1{fill:#AECA08;}
	.st2{fill:#737377;}
</style>
<g>
	<path class="st0" d="M55.7,14.9V0h-9.6C35.8,0,27.5,8.3,27.5,18.6v9.5h15.1C49.8,28.1,55.7,22.2,55.7,14.9z"/>
	<path class="st1" d="M67,0h-3.3v14.9c0,11.7-9.5,21.2-21.2,21.2H27.5v3.5c0,10.3,8.3,18.6,18.6,18.6H67c10.3,0,18.6-8.3,18.6-18.6
		V18.6C85.6,8.3,77.3,0,67,0z"/>
</g>
<path class="st0" d="M17,11.8c5.5,5.9,3.4,16.9,3.4,16.9S9.1,30.5,3.6,24.6s-3-17.1-3-17.1S11.5,6,17,11.8z"/>
<rect x="149.5" y="15.6" class="st2" width="10.9" height="42.9"/>
<rect x="149.5" y="0.6" class="st2" width="10.9" height="10.9"/>
<rect x="288.5" y="47.6" class="st1" width="10.9" height="10.9"/>
<path class="st2" d="M132,15.3c0,0-7.2,33.6-7.4,34.2c-0.2,0.5-1.2,0.5-1.3,0c-0.1-0.4-7.4-34.1-7.4-34.1l-11.3,0.3l10.1,36
	c1,3.7,4.1,6.4,7.9,6.9l0,0l0,0c0,0,0,0,0.1,0l1.2,0l1.2,0c0,0,0,0,0.1,0l0,0l0,0c3.8-0.5,6.9-3.2,7.9-6.9l10.1-36L132,15.3z"/>
<path class="st2" d="M193.2,15.3c0,0-7.2,33.6-7.4,34.2c-0.2,0.5-1.2,0.5-1.3,0c-0.1-0.4-7.4-34.1-7.4-34.1l-11.3,0.3l10.1,36
	c1,3.7,4.1,6.4,7.9,6.9l0,0l0,0c0,0,0,0,0.1,0l1.2,0l1.2,0c0,0,0,0,0.1,0l0,0l0,0c3.8-0.5,6.9-3.2,7.9-6.9l10.1-36L193.2,15.3z"/>
<path class="st2" d="M235,15.6c-0.1,4.9-0.1,9.9-0.2,14.8c0,3-0.1,6.1-0.1,9.1c0,1.4-0.1,2.9-0.4,4.3c-0.4,1.7-1.4,3.1-2.9,3.9
	c-0.9,0.5-2.3,1.1-3.9,1.1c-1.5,0-3-0.6-3.9-1.1c-1.5-0.8-2.5-2.3-2.9-3.9c-0.4-1.4-0.4-2.9-0.4-4.3c0-3-0.1-6.1-0.1-9.1
	c-0.1-4.9-0.1-9.9-0.2-14.8h-10.9v26.8c0,2.2,0.3,4.3,1.1,6.3c3.3,8.3,11.5,9.6,16.8,9.6c0,0,0.1,0,0.4,0c0.3,0,0.4,0,0.4,0
	c5.3,0,13.5-1.3,16.8-9.6c0.8-2,1.1-4.2,1.1-6.3V15.6H235z"/>
<path class="st1" d="M367.5,15.5c-0.1,4.9-0.1,9.9-0.2,14.8c0,3-0.1,6.1-0.1,9.1c0,1.4-0.1,2.9-0.4,4.3c-0.4,1.7-1.4,3.1-2.9,3.9
	c-0.9,0.5-2.3,1.1-3.9,1.1c-1.5,0-3-0.6-3.9-1.1c-1.5-0.8-2.5-2.3-2.9-3.9c-0.4-1.4-0.4-2.9-0.4-4.3c0-3-0.1-6.1-0.1-9.1
	c-0.1-4.9-0.1-9.9-0.2-14.8h-10.9v26.8c0,2.2,0.3,4.3,1.1,6.3c3.3,8.3,11.5,9.6,16.8,9.6c0,0,0.1,0,0.4,0c0.3,0,0.4,0,0.4,0
	c5.3,0,13.5-1.3,16.8-9.6c0.8-2,1.1-4.2,1.1-6.3V15.5H367.5z"/>
<path class="st2" d="M267.8,58.5c-1.1,0-14.8-1-16.2-1.1l-0.1-8.9c0,0,11.6,1.1,14,1.1c1.7,0,4.3,0.1,5-2c0.6-1.7-1.2-2.9-2.5-3.7
	c-2-1.3-10.1-6.5-11.8-8.1c-2.1-1.9-5.5-5.8-4.8-11.3c0.6-5.6,5.4-8.6,13.5-9.1c3.5-0.2,9.7-0.3,16,1.6l0.2,7.7
	c-6.1-0.7-13.8-0.9-17-0.5c-2.1,0.3-3,2.3-1.6,3.6c0.8,0.8,2.6,1.8,3.5,2.4c1.6,1.1,7.4,4.6,9,5.7c1.5,1.1,6.6,4.3,6.6,10
	c0,2.9,0.1,6.4-2.6,8.8C275.6,57.9,271.3,58.5,267.8,58.5z"/>
<path class="st1" d="M329.9,42.3c-0.2-0.9,0.9-1.6,1.5-2c1.2-0.9,2.1-1.9,2.9-3.4c0.9-1.8,1.3-3.8,1.4-5.9c0.1-3.4-0.5-7.3-2-10.4
	c-1.2-2.4-3.7-4-6.1-4.7c-2.8-0.8-6.1-0.6-9-0.7c-2.4,0-4.8,0-7.2,0.2c-0.6,0-4,0.2-4.9,0.3c-0.1,0-0.3,0.2-0.3,0.3l0.1,42.5h9.2
	V43.8l5.1,0.2l6.7,14.6h9.7C337,58.5,330,43.1,329.9,42.3z M324,36.2c-0.4,0-9-0.1-9-0.1V23l8.9-0.1c0.7,0,3.3,2,3.3,7.1
	C327.2,31.2,326.1,36,324,36.2z"/>
</svg>
